<svg width="57" height="51" viewBox="0 0 57 51" fill="none" xmlns="http://www.w3.org/2000/svg">
<rect y="6" width="45" height="45" rx="6" fill="#5155FF"/>
<path d="M38 37.9067H8V33.9454L10.5467 31.3987V25.4533C10.5467 18.5756 16.1222 13 23 13C29.8778 13 35.4533 18.5756 35.4533 25.4534V31.4001L38 33.9467L38 37.9067ZM9.99998 35.9067H36V34.7747L33.4533 32.228V25.4533C33.4533 19.6801 28.7732 15 23 15C17.2268 15 12.5467 19.6801 12.5467 25.4533V32.2267L9.99998 34.7733V35.9067ZM23 43.0534C20.3476 43.0503 18.1973 40.9047 18.1867 38.2544V38.2534C18.1855 38.2149 18.1848 38.1696 18.1848 38.1241C18.1848 37.5558 18.2932 37.0127 18.4904 36.5144L18.48 36.5441L20.3467 37.264C20.2446 37.5198 20.1854 37.8163 20.1854 38.1265C20.1854 38.1543 20.1858 38.1819 20.1868 38.2094L20.1867 38.2054V38.2374C20.1867 39.7911 21.4462 41.0507 23 41.0507C24.5537 41.0507 25.8134 39.7911 25.8134 38.2374V38.2054C25.8142 38.1819 25.8146 38.1543 25.8146 38.1265C25.8146 37.8163 25.7554 37.5198 25.6477 37.2478L25.6533 37.264L27.52 36.5441C27.7068 37.0126 27.8152 37.5557 27.8152 38.1241C27.8152 38.1696 27.8145 38.2148 27.8132 38.26L27.8133 38.2534C27.8027 40.9048 25.6524 43.0504 23.0002 43.0534H23L23 43.0534Z" fill="white"/>
<circle cx="45" cy="12" r="12" fill="#F86665"/>
<circle cx="45" cy="12" r="5" fill="white"/>
</svg>
