<svg width="45" height="45" viewBox="0 0 45 45" fill="none" xmlns="http://www.w3.org/2000/svg">
<rect width="45" height="45" rx="6" fill="#5155FF"/>
<path d="M23 6C27.7768 6 31.6492 9.87237 31.6492 14.6492C31.6492 19.4261 27.7768 23.2984 23 23.2984C18.2231 23.2984 14.3507 19.4261 14.3507 14.6492C14.356 9.87452 18.2253 6.00536 22.9994 6H22.9999H23ZM23 21.2963C26.671 21.2963 29.647 18.3203 29.647 14.6492C29.647 10.9781 26.6711 8.00211 23 8.00211C19.3289 8.00211 16.3529 10.9781 16.3529 14.6492C16.3574 18.3184 19.3307 21.2917 22.9995 21.2963H23ZM36.0298 36.5165L35.5359 33.7775C34.4142 27.7932 29.2303 23.325 23.0028 23.325H22.9998H22.9999C16.7784 23.3253 11.5981 27.7826 10.4778 33.678L10.4652 33.7575L9.97272 36.4898L8 36.1347L8.49387 33.3985C9.80244 26.4831 15.7974 21.3236 22.9974 21.3236C30.205 21.3236 36.205 26.4941 37.4905 33.3283L37.5048 33.4199L38 36.1615L36.0298 36.5165Z" fill="white"/>
</svg>
