<svg width="45" height="45" viewBox="0 0 45 45" fill="none" xmlns="http://www.w3.org/2000/svg">
<rect width="45" height="45" rx="6" fill="#5155FF"/>
<path d="M18.3141 8H27.6871V11.3753C28.6977 11.8016 29.5692 12.3109 30.3639 12.9159L30.3341 12.8942L33.3031 11.1806L38 19.3592L35.0271 21.0663C35.0903 21.5179 35.1264 22.0396 35.1264 22.5697C35.1264 23.0998 35.0903 23.6214 35.0205 24.1323L35.0271 24.073L38 25.7801L33.3031 33.9587L30.3328 32.2451C29.5679 32.8284 28.6964 33.3377 27.7652 33.734L27.6858 33.764V37.2094H18.3142V33.8795C17.3036 33.4532 16.4321 32.9439 15.6374 32.3389L15.6671 32.3606L12.6969 34.0742L8 25.8956L10.9742 24.1885C10.91 23.7291 10.8734 23.1984 10.8734 22.6592C10.8734 22.12 10.91 21.5892 10.981 21.0695L10.9742 21.1299L8.00131 19.4202L12.6982 11.2416L15.6684 12.9552C16.433 12.371 17.304 11.8609 18.2349 11.4638L18.3142 11.4337L18.3141 8ZM25.7398 9.9473H20.2614V12.7916L19.6123 13.0201C18.3685 13.4623 17.2951 14.0903 16.3653 14.882L16.3798 14.8701L15.8605 15.3128L13.4147 13.9068L10.6599 18.7101L13.1265 20.129L12.9967 20.8119C12.8835 21.3693 12.8187 22.0099 12.8187 22.6657C12.8187 23.3215 12.8835 23.9622 13.007 24.5816L12.9967 24.5195L13.1265 25.2024L10.6599 26.6213L13.4147 31.4246L15.8605 30.0044L16.3797 30.4471C17.2929 31.2261 18.3636 31.8539 19.5332 32.2746L19.6045 32.297L20.2536 32.5255V35.262H25.7319V32.4177L26.381 32.1892C27.6278 31.748 28.7039 31.1198 29.6358 30.3273L29.6213 30.3393L30.1406 29.8966L32.5864 31.3026L35.3412 26.4993L32.8668 25.0881L32.9966 24.404C33.1091 23.855 33.1734 23.2241 33.1734 22.5781C33.1734 21.9321 33.1091 21.3012 32.9864 20.6913L32.9966 20.7522L32.8668 20.068L35.3399 18.6478L32.5851 13.8445L30.1406 15.2608L29.6213 14.8156C28.7081 14.0366 27.6374 13.4087 26.4678 12.988L26.3966 12.9657L25.7474 12.7372L25.7398 9.9473ZM23.0006 16.6719C26.2772 16.6719 28.9334 19.3281 28.9334 22.6047C28.9334 25.8813 26.2772 28.5375 23.0006 28.5375C19.7241 28.5375 17.0679 25.8812 17.0679 22.6047C17.0716 19.3296 19.7255 16.6756 23.0002 16.6719H23.0006ZM23.0006 26.5901C25.2017 26.5901 26.9861 24.8058 26.9861 22.6047C26.9861 20.4035 25.2017 18.6192 23.0006 18.6192C20.7995 18.6192 19.0151 20.4036 19.0151 22.6047C19.0174 24.8049 20.8004 26.5879 23.0004 26.5901H23.0006Z" fill="white"/>
</svg>
