<svg width="37" height="37" viewBox="0 0 37 37" fill="none" xmlns="http://www.w3.org/2000/svg">
<rect width="37" height="37" rx="6" fill="#F86665"/>
<path d="M28.3278 31.244H5.75562V8.67178H19.1411V10.3162H7.40005V29.5996H26.6834V18.9109H28.3279L28.3278 31.244ZM11.8125 25.187L13.1434 18.5053L23.9647 7.68513C24.6485 7.00352 25.5911 6.58111 26.6324 6.57788H26.6396C28.7287 6.57817 30.4223 8.27187 30.4223 10.3611C30.4223 11.4057 29.9989 12.3514 29.3145 13.036L18.4943 23.8562L11.8125 25.187ZM14.6628 19.3166L13.9108 23.0943L17.6885 22.3423L28.1524 11.8728C28.5391 11.4859 28.7782 10.9514 28.7782 10.3611C28.7782 9.17991 27.8207 8.22234 26.6396 8.22229H26.633C26.0453 8.22413 25.5135 8.46252 25.1277 8.84718L14.6628 19.3166Z" fill="white"/>
</svg>
