<svg width="58" height="58" viewBox="0 0 58 58" fill="none" xmlns="http://www.w3.org/2000/svg">
<g filter="url(#filter0_d_786_1533)">
<rect x="4" width="50" height="50" rx="5" fill="#F86665"/>
</g>
<path d="M20.7474 31.12C18.9341 31.12 17.3941 30.88 16.1274 30.4C14.8741 29.92 13.9208 29.2267 13.2674 28.32C12.6141 27.4 12.2874 26.28 12.2874 24.96C12.2874 23.64 12.6141 22.5267 13.2674 21.62C13.9208 20.7 14.8741 20 16.1274 19.52C17.3941 19.04 18.9341 18.8 20.7474 18.8C20.7741 18.8 20.8474 18.8 20.9674 18.8C21.1008 18.8 21.2274 18.8 21.3474 18.8C21.4808 18.8 21.5541 18.8 21.5674 18.8C23.3674 18.8 24.8874 19.04 26.1274 19.52C27.3808 20 28.3274 20.7 28.9674 21.62C29.6074 22.54 29.9274 23.6533 29.9274 24.96C29.9274 26.2533 29.6074 27.3667 28.9674 28.3C28.3408 29.22 27.4141 29.92 26.1874 30.4C24.9741 30.88 23.4874 31.12 21.7274 31.12C21.6874 31.12 21.5941 31.12 21.4474 31.12C21.3008 31.12 21.1541 31.12 21.0074 31.12C20.8741 31.12 20.7874 31.12 20.7474 31.12ZM21.0474 28.62C21.0874 28.62 21.1408 28.62 21.2074 28.62C21.2741 28.62 21.3208 28.62 21.3474 28.62C22.5741 28.62 23.5874 28.4867 24.3874 28.22C25.2008 27.94 25.8074 27.5333 26.2074 27C26.6074 26.4533 26.8074 25.7667 26.8074 24.94C26.8074 24.1133 26.6008 23.4333 26.1874 22.9C25.7741 22.3667 25.1674 21.9733 24.3674 21.72C23.5808 21.4533 22.5874 21.32 21.3874 21.32C21.3608 21.32 21.3074 21.32 21.2274 21.32C21.1608 21.32 21.1008 21.32 21.0474 21.32C19.7808 21.32 18.7341 21.4467 17.9074 21.7C17.0808 21.9533 16.4608 22.3533 16.0474 22.9C15.6341 23.4333 15.4274 24.12 15.4274 24.96C15.4274 25.8 15.6474 26.4933 16.0874 27.04C16.5274 27.5733 17.1608 27.9733 17.9874 28.24C18.8274 28.4933 19.8474 28.62 21.0474 28.62ZM19.6274 32.62V17.4H22.6074V32.62H19.6274ZM30.576 32L36.816 18H40.016L46.276 32H42.876L37.756 19.64H39.036L33.896 32H30.576ZM33.696 29L34.556 26.54H41.756L42.636 29H33.696Z" fill="white"/>
<defs>
<filter id="filter0_d_786_1533" x="0" y="0" width="58" height="58" filterUnits="userSpaceOnUse" color-interpolation-filters="sRGB">
<feFlood flood-opacity="0" result="BackgroundImageFix"/>
<feColorMatrix in="SourceAlpha" type="matrix" values="0 0 0 0 0 0 0 0 0 0 0 0 0 0 0 0 0 0 127 0" result="hardAlpha"/>
<feOffset dy="4"/>
<feGaussianBlur stdDeviation="2"/>
<feComposite in2="hardAlpha" operator="out"/>
<feColorMatrix type="matrix" values="0 0 0 0 0 0 0 0 0 0 0 0 0 0 0 0 0 0 0.25 0"/>
<feBlend mode="normal" in2="BackgroundImageFix" result="effect1_dropShadow_786_1533"/>
<feBlend mode="normal" in="SourceGraphic" in2="effect1_dropShadow_786_1533" result="shape"/>
</filter>
</defs>
</svg>
