<svg width="207" height="58" viewBox="0 0 207 58" fill="none" xmlns="http://www.w3.org/2000/svg">
<g filter="url(#filter0_d_786_1530)">
<rect x="4" width="199" height="50" rx="6" fill="#47D263"/>
</g>
<path d="M47.5334 34V16.5H51.5584V27.9L59.9084 16.5H63.7084V34H59.7084V22.625L51.3584 34H47.5334ZM74.1656 34.2C72.7156 34.2 71.424 33.9083 70.2906 33.325C69.1573 32.725 68.2656 31.9 67.6156 30.85C66.9823 29.8 66.6656 28.6083 66.6656 27.275C66.6656 25.925 66.9823 24.7333 67.6156 23.7C68.2656 22.65 69.1573 21.8333 70.2906 21.25C71.424 20.65 72.7156 20.35 74.1656 20.35C75.5823 20.35 76.8156 20.65 77.8656 21.25C78.9156 21.8333 79.6906 22.675 80.1906 23.775L77.1656 25.4C76.8156 24.7667 76.374 24.3 75.8406 24C75.324 23.7 74.7573 23.55 74.1406 23.55C73.474 23.55 72.874 23.7 72.3406 24C71.8073 24.3 71.3823 24.725 71.0656 25.275C70.7656 25.825 70.6156 26.4917 70.6156 27.275C70.6156 28.0583 70.7656 28.725 71.0656 29.275C71.3823 29.825 71.8073 30.25 72.3406 30.55C72.874 30.85 73.474 31 74.1406 31C74.7573 31 75.324 30.8583 75.8406 30.575C76.374 30.275 76.8156 29.8 77.1656 29.15L80.1906 30.8C79.6906 31.8833 78.9156 32.725 77.8656 33.325C76.8156 33.9083 75.5823 34.2 74.1656 34.2ZM85.4111 34V22.85L86.2861 23.75H80.8611V20.55H93.8361V23.75H88.4111L89.2861 22.85V34H85.4111ZM101.654 34.2C100.22 34.2 98.9452 33.9 97.8285 33.3C96.7285 32.7 95.8535 31.8833 95.2035 30.85C94.5702 29.8 94.2535 28.6083 94.2535 27.275C94.2535 25.925 94.5702 24.7333 95.2035 23.7C95.8535 22.65 96.7285 21.8333 97.8285 21.25C98.9452 20.65 100.22 20.35 101.654 20.35C103.07 20.35 104.337 20.65 105.454 21.25C106.57 21.8333 107.445 22.6417 108.079 23.675C108.712 24.7083 109.029 25.9083 109.029 27.275C109.029 28.6083 108.712 29.8 108.079 30.85C107.445 31.8833 106.57 32.7 105.454 33.3C104.337 33.9 103.07 34.2 101.654 34.2ZM101.654 31C102.304 31 102.887 30.85 103.404 30.55C103.92 30.25 104.329 29.825 104.629 29.275C104.929 28.7083 105.079 28.0417 105.079 27.275C105.079 26.4917 104.929 25.825 104.629 25.275C104.329 24.725 103.92 24.3 103.404 24C102.887 23.7 102.304 23.55 101.654 23.55C101.004 23.55 100.42 23.7 99.9035 24C99.3868 24.3 98.9702 24.725 98.6535 25.275C98.3535 25.825 98.2035 26.4917 98.2035 27.275C98.2035 28.0417 98.3535 28.7083 98.6535 29.275C98.9702 29.825 99.3868 30.25 99.9035 30.55C100.42 30.85 101.004 31 101.654 31ZM119.636 34.2C118.503 34.2 117.511 33.95 116.661 33.45C115.811 32.95 115.144 32.1917 114.661 31.175C114.194 30.1417 113.961 28.8417 113.961 27.275C113.961 25.6917 114.186 24.3917 114.636 23.375C115.086 22.3583 115.736 21.6 116.586 21.1C117.436 20.6 118.453 20.35 119.636 20.35C120.903 20.35 122.036 20.6417 123.036 21.225C124.053 21.7917 124.853 22.5917 125.436 23.625C126.036 24.6583 126.336 25.875 126.336 27.275C126.336 28.6917 126.036 29.9167 125.436 30.95C124.853 31.9833 124.053 32.7833 123.036 33.35C122.036 33.9167 120.903 34.2 119.636 34.2ZM111.686 38.85V20.55H115.411V23.3L115.336 27.3L115.586 31.275V38.85H111.686ZM118.961 31C119.611 31 120.186 30.85 120.686 30.55C121.203 30.25 121.611 29.825 121.911 29.275C122.228 28.7083 122.386 28.0417 122.386 27.275C122.386 26.4917 122.228 25.825 121.911 25.275C121.611 24.725 121.203 24.3 120.686 24C120.186 23.7 119.611 23.55 118.961 23.55C118.311 23.55 117.728 23.7 117.211 24C116.694 24.3 116.286 24.725 115.986 25.275C115.686 25.825 115.536 26.4917 115.536 27.275C115.536 28.0417 115.686 28.7083 115.986 29.275C116.286 29.825 116.694 30.25 117.211 30.55C117.728 30.85 118.311 31 118.961 31ZM129.069 34V20.55H132.944V28.55L139.494 20.55H143.069V34H139.194V26L132.669 34H129.069ZM155.293 34V29.525L155.843 30.15H152.118C150.185 30.15 148.668 29.75 147.568 28.95C146.468 28.15 145.918 27 145.918 25.5C145.918 23.9 146.493 22.675 147.643 21.825C148.81 20.975 150.377 20.55 152.343 20.55H158.768V34H155.293ZM145.718 34L149.293 28.875H153.268L149.868 34H145.718ZM155.293 28.325V22.725L155.843 23.725H152.418C151.618 23.725 150.993 23.875 150.543 24.175C150.11 24.475 149.893 24.9583 149.893 25.625C149.893 26.9083 150.718 27.55 152.368 27.55H155.843L155.293 28.325Z" fill="white"/>
<defs>
<filter id="filter0_d_786_1530" x="0" y="0" width="207" height="58" filterUnits="userSpaceOnUse" color-interpolation-filters="sRGB">
<feFlood flood-opacity="0" result="BackgroundImageFix"/>
<feColorMatrix in="SourceAlpha" type="matrix" values="0 0 0 0 0 0 0 0 0 0 0 0 0 0 0 0 0 0 127 0" result="hardAlpha"/>
<feOffset dy="4"/>
<feGaussianBlur stdDeviation="2"/>
<feComposite in2="hardAlpha" operator="out"/>
<feColorMatrix type="matrix" values="0 0 0 0 0 0 0 0 0 0 0 0 0 0 0 0 0 0 0.25 0"/>
<feBlend mode="normal" in2="BackgroundImageFix" result="effect1_dropShadow_786_1530"/>
<feBlend mode="normal" in="SourceGraphic" in2="effect1_dropShadow_786_1530" result="shape"/>
</filter>
</defs>
</svg>
