<svg width="281" height="43" viewBox="0 0 281 43" fill="none" xmlns="http://www.w3.org/2000/svg">
<g filter="url(#filter0_d_332_6730)">
<rect x="4" width="273" height="35" rx="10" fill="#47D263"/>
</g>
<path d="M27.36 24.24C26.28 24.24 25.2733 24.0667 24.34 23.72C23.42 23.36 22.62 22.8533 21.94 22.2C21.26 21.5467 20.7267 20.78 20.34 19.9C19.9667 19.02 19.78 18.0533 19.78 17C19.78 15.9467 19.9667 14.98 20.34 14.1C20.7267 13.22 21.26 12.4533 21.94 11.8C22.6333 11.1467 23.44 10.6467 24.36 10.3C25.28 9.94 26.2867 9.76 27.38 9.76C28.5933 9.76 29.6867 9.97333 30.66 10.4C31.6467 10.8133 32.4733 11.4267 33.14 12.24L31.06 14.16C30.58 13.6133 30.0467 13.2067 29.46 12.94C28.8733 12.66 28.2333 12.52 27.54 12.52C26.8867 12.52 26.2867 12.6267 25.74 12.84C25.1933 13.0533 24.72 13.36 24.32 13.76C23.92 14.16 23.6067 14.6333 23.38 15.18C23.1667 15.7267 23.06 16.3333 23.06 17C23.06 17.6667 23.1667 18.2733 23.38 18.82C23.6067 19.3667 23.92 19.84 24.32 20.24C24.72 20.64 25.1933 20.9467 25.74 21.16C26.2867 21.3733 26.8867 21.48 27.54 21.48C28.2333 21.48 28.8733 21.3467 29.46 21.08C30.0467 20.8 30.58 20.38 31.06 19.82L33.14 21.74C32.4733 22.5533 31.6467 23.1733 30.66 23.6C29.6867 24.0267 28.5867 24.24 27.36 24.24ZM39.6806 24.16C38.534 24.16 37.514 23.92 36.6206 23.44C35.7406 22.96 35.0406 22.3067 34.5206 21.48C34.014 20.64 33.7606 19.6867 33.7606 18.62C33.7606 17.54 34.014 16.5867 34.5206 15.76C35.0406 14.92 35.7406 14.2667 36.6206 13.8C37.514 13.32 38.534 13.08 39.6806 13.08C40.814 13.08 41.8273 13.32 42.7206 13.8C43.614 14.2667 44.314 14.9133 44.8206 15.74C45.3273 16.5667 45.5806 17.5267 45.5806 18.62C45.5806 19.6867 45.3273 20.64 44.8206 21.48C44.314 22.3067 43.614 22.96 42.7206 23.44C41.8273 23.92 40.814 24.16 39.6806 24.16ZM39.6806 21.6C40.2006 21.6 40.6673 21.48 41.0806 21.24C41.494 21 41.8206 20.66 42.0606 20.22C42.3006 19.7667 42.4206 19.2333 42.4206 18.62C42.4206 17.9933 42.3006 17.46 42.0606 17.02C41.8206 16.58 41.494 16.24 41.0806 16C40.6673 15.76 40.2006 15.64 39.6806 15.64C39.1606 15.64 38.694 15.76 38.2806 16C37.8673 16.24 37.534 16.58 37.2806 17.02C37.0406 17.46 36.9206 17.9933 36.9206 18.62C36.9206 19.2333 37.0406 19.7667 37.2806 20.22C37.534 20.66 37.8673 21 38.2806 21.24C38.694 21.48 39.1606 21.6 39.6806 21.6ZM45.9545 24L50.7745 17.68L50.7145 19.4L46.0945 13.24H49.5945L52.5145 17.26L51.1945 17.3L54.2145 13.24H57.5345L52.8945 19.34V17.66L57.6945 24H54.1545L51.0945 19.72L52.3945 19.9L49.3545 24H45.9545ZM65.5705 24.16C64.6638 24.16 63.8705 23.96 63.1905 23.56C62.5105 23.16 61.9771 22.5533 61.5905 21.74C61.2171 20.9133 61.0305 19.8733 61.0305 18.62C61.0305 17.3533 61.2105 16.3133 61.5705 15.5C61.9305 14.6867 62.4505 14.08 63.1305 13.68C63.8105 13.28 64.6238 13.08 65.5705 13.08C66.5838 13.08 67.4905 13.3133 68.2905 13.78C69.1038 14.2333 69.7438 14.8733 70.2105 15.7C70.6905 16.5267 70.9305 17.5 70.9305 18.62C70.9305 19.7533 70.6905 20.7333 70.2105 21.56C69.7438 22.3867 69.1038 23.0267 68.2905 23.48C67.4905 23.9333 66.5838 24.16 65.5705 24.16ZM59.2105 27.88V13.24H62.1905V15.44L62.1305 18.64L62.3305 21.82V27.88H59.2105ZM65.0305 21.6C65.5505 21.6 66.0105 21.48 66.4105 21.24C66.8238 21 67.1505 20.66 67.3905 20.22C67.6438 19.7667 67.7705 19.2333 67.7705 18.62C67.7705 17.9933 67.6438 17.46 67.3905 17.02C67.1505 16.58 66.8238 16.24 66.4105 16C66.0105 15.76 65.5505 15.64 65.0305 15.64C64.5105 15.64 64.0438 15.76 63.6305 16C63.2171 16.24 62.8905 16.58 62.6505 17.02C62.4105 17.46 62.2905 17.9933 62.2905 18.62C62.2905 19.2333 62.4105 19.7667 62.6505 20.22C62.8905 20.66 63.2171 21 63.6305 21.24C64.0438 21.48 64.5105 21.6 65.0305 21.6ZM79.3814 24V21.9L79.1814 21.44V17.68C79.1814 17.0133 78.9747 16.4933 78.5614 16.12C78.1614 15.7467 77.5414 15.56 76.7014 15.56C76.1281 15.56 75.5614 15.6533 75.0014 15.84C74.4547 16.0133 73.9881 16.2533 73.6014 16.56L72.4814 14.38C73.0681 13.9667 73.7747 13.6467 74.6014 13.42C75.4281 13.1933 76.2681 13.08 77.1214 13.08C78.7614 13.08 80.0347 13.4667 80.9414 14.24C81.8481 15.0133 82.3014 16.22 82.3014 17.86V24H79.3814ZM76.1014 24.16C75.2614 24.16 74.5414 24.02 73.9414 23.74C73.3414 23.4467 72.8814 23.0533 72.5614 22.56C72.2414 22.0667 72.0814 21.5133 72.0814 20.9C72.0814 20.26 72.2347 19.7 72.5414 19.22C72.8614 18.74 73.3614 18.3667 74.0414 18.1C74.7214 17.82 75.6081 17.68 76.7014 17.68H79.5614V19.5H77.0414C76.3081 19.5 75.8014 19.62 75.5214 19.86C75.2547 20.1 75.1214 20.4 75.1214 20.76C75.1214 21.16 75.2747 21.48 75.5814 21.72C75.9014 21.9467 76.3347 22.06 76.8814 22.06C77.4014 22.06 77.8681 21.94 78.2814 21.7C78.6947 21.4467 78.9947 21.08 79.1814 20.6L79.6614 22.04C79.4347 22.7333 79.0214 23.26 78.4214 23.62C77.8214 23.98 77.0481 24.16 76.1014 24.16ZM85.0117 24V13.24H88.1117V17.44H92.7917V13.24H95.9117V24H92.7917V19.98H88.1117V24H85.0117ZM98.8984 24V13.24H101.998V19.64L107.238 13.24H110.098V24H106.998V17.6L101.778 24H98.8984ZM115.398 24V15.08L116.098 15.8H111.758V13.24H122.138V15.8H117.798L118.498 15.08V24H115.398ZM129.621 16.68C131.034 16.6933 132.107 17.0133 132.841 17.64C133.587 18.2533 133.961 19.1267 133.961 20.26C133.961 21.4467 133.541 22.3733 132.701 23.04C131.861 23.6933 130.694 24.02 129.201 24.02L123.801 24V13.24H126.901V16.68H129.621ZM128.921 21.8C129.521 21.8133 129.981 21.6867 130.301 21.42C130.621 21.1533 130.781 20.7533 130.781 20.22C130.781 19.6867 130.621 19.3067 130.301 19.08C129.981 18.84 129.521 18.7133 128.921 18.7L126.901 18.68V21.8H128.921ZM141.574 24V13.24H144.674V19.64L149.914 13.24H152.774V24H149.674V17.6L144.454 24H141.574ZM159.316 24.2C160.329 24.2 161.236 24.0667 162.036 23.8C162.849 23.52 163.489 23.1267 163.956 22.62C164.436 22.1 164.676 21.4933 164.676 20.8C164.676 19.9867 164.336 19.3467 163.656 18.88C162.976 18.4 162.042 18.16 160.856 18.16L160.776 18.78C161.456 18.78 162.069 18.6667 162.616 18.44C163.162 18.2 163.589 17.8733 163.896 17.46C164.216 17.0467 164.376 16.58 164.376 16.06C164.376 15.4067 164.142 14.8533 163.676 14.4C163.222 13.9467 162.596 13.6 161.796 13.36C160.996 13.12 160.096 13.0133 159.096 13.04C158.416 13.0533 157.729 13.1467 157.036 13.32C156.342 13.4933 155.642 13.7267 154.936 14.02L155.696 16.18C156.296 15.94 156.882 15.76 157.456 15.64C158.029 15.5067 158.582 15.44 159.116 15.44C159.582 15.44 159.969 15.4867 160.276 15.58C160.582 15.66 160.816 15.78 160.976 15.94C161.136 16.1 161.216 16.2933 161.216 16.52C161.216 16.7333 161.149 16.92 161.016 17.08C160.896 17.2267 160.709 17.34 160.456 17.42C160.202 17.5 159.896 17.54 159.536 17.54H157.596V19.48H159.796C160.356 19.48 160.782 19.5733 161.076 19.76C161.369 19.9333 161.516 20.1933 161.516 20.54C161.516 20.8067 161.422 21.0333 161.236 21.22C161.049 21.4067 160.776 21.5533 160.416 21.66C160.069 21.7533 159.656 21.8 159.176 21.8C158.509 21.8 157.849 21.7333 157.196 21.6C156.556 21.4533 155.962 21.2467 155.416 20.98L154.576 23.16C155.269 23.5067 156.022 23.7667 156.836 23.94C157.662 24.1133 158.489 24.2 159.316 24.2ZM166.906 24V13.24H170.166L174.226 20.6H172.926L177.266 13.24H180.186L180.226 24H177.406V16.44L177.886 16.76L174.186 22.96H172.866L169.146 16.54L169.726 16.4V24H166.906ZM188.475 24.16C187.248 24.16 186.168 23.92 185.235 23.44C184.315 22.96 183.602 22.3067 183.095 21.48C182.588 20.64 182.335 19.6867 182.335 18.62C182.335 17.54 182.582 16.5867 183.075 15.76C183.582 14.92 184.268 14.2667 185.135 13.8C186.002 13.32 186.982 13.08 188.075 13.08C189.128 13.08 190.075 13.3067 190.915 13.76C191.768 14.2 192.442 14.84 192.935 15.68C193.428 16.5067 193.675 17.5 193.675 18.66C193.675 18.78 193.668 18.92 193.655 19.08C193.642 19.2267 193.628 19.3667 193.615 19.5H184.875V17.68H191.975L190.775 18.22C190.775 17.66 190.662 17.1733 190.435 16.76C190.208 16.3467 189.895 16.0267 189.495 15.8C189.095 15.56 188.628 15.44 188.095 15.44C187.562 15.44 187.088 15.56 186.675 15.8C186.275 16.0267 185.962 16.3533 185.735 16.78C185.508 17.1933 185.395 17.6867 185.395 18.26V18.74C185.395 19.3267 185.522 19.8467 185.775 20.3C186.042 20.74 186.408 21.08 186.875 21.32C187.355 21.5467 187.915 21.66 188.555 21.66C189.128 21.66 189.628 21.5733 190.055 21.4C190.495 21.2267 190.895 20.9667 191.255 20.62L192.915 22.42C192.422 22.98 191.802 23.4133 191.055 23.72C190.308 24.0133 189.448 24.16 188.475 24.16ZM196.066 24V13.24H199.166V17.44H203.846V13.24H206.966V24H203.846V19.98H199.166V24H196.066ZM215.213 24.16C213.986 24.16 212.906 23.92 211.973 23.44C211.053 22.96 210.34 22.3067 209.833 21.48C209.326 20.64 209.073 19.6867 209.073 18.62C209.073 17.54 209.32 16.5867 209.813 15.76C210.32 14.92 211.006 14.2667 211.873 13.8C212.74 13.32 213.72 13.08 214.813 13.08C215.866 13.08 216.813 13.3067 217.653 13.76C218.506 14.2 219.18 14.84 219.673 15.68C220.166 16.5067 220.413 17.5 220.413 18.66C220.413 18.78 220.406 18.92 220.393 19.08C220.38 19.2267 220.366 19.3667 220.353 19.5H211.613V17.68H218.713L217.513 18.22C217.513 17.66 217.4 17.1733 217.173 16.76C216.946 16.3467 216.633 16.0267 216.233 15.8C215.833 15.56 215.366 15.44 214.833 15.44C214.3 15.44 213.826 15.56 213.413 15.8C213.013 16.0267 212.7 16.3533 212.473 16.78C212.246 17.1933 212.133 17.6867 212.133 18.26V18.74C212.133 19.3267 212.26 19.8467 212.513 20.3C212.78 20.74 213.146 21.08 213.613 21.32C214.093 21.5467 214.653 21.66 215.293 21.66C215.866 21.66 216.366 21.5733 216.793 21.4C217.233 21.2267 217.633 20.9667 217.993 20.62L219.653 22.42C219.16 22.98 218.54 23.4133 217.793 23.72C217.046 24.0133 216.186 24.16 215.213 24.16ZM222.805 24V13.24H225.905V17.44H230.585V13.24H233.705V24H230.585V19.98H225.905V24H222.805ZM236.691 24V13.24H239.791V19.64L245.031 13.24H247.891V24H244.791V17.6L239.571 24H236.691ZM257.671 24V20.42L258.111 20.92H255.131C253.584 20.92 252.371 20.6 251.491 19.96C250.611 19.32 250.171 18.4 250.171 17.2C250.171 15.92 250.631 14.94 251.551 14.26C252.484 13.58 253.737 13.24 255.311 13.24H260.451V24H257.671ZM250.011 24L252.871 19.9H256.051L253.331 24H250.011ZM257.671 19.46V14.98L258.111 15.78H255.371C254.731 15.78 254.231 15.9 253.871 16.14C253.524 16.38 253.351 16.7667 253.351 17.3C253.351 18.3267 254.011 18.84 255.331 18.84H258.111L257.671 19.46Z" fill="white"/>
<defs>
<filter id="filter0_d_332_6730" x="0" y="0" width="281" height="43" filterUnits="userSpaceOnUse" color-interpolation-filters="sRGB">
<feFlood flood-opacity="0" result="BackgroundImageFix"/>
<feColorMatrix in="SourceAlpha" type="matrix" values="0 0 0 0 0 0 0 0 0 0 0 0 0 0 0 0 0 0 127 0" result="hardAlpha"/>
<feOffset dy="4"/>
<feGaussianBlur stdDeviation="2"/>
<feComposite in2="hardAlpha" operator="out"/>
<feColorMatrix type="matrix" values="0 0 0 0 0 0 0 0 0 0 0 0 0 0 0 0 0 0 0.25 0"/>
<feBlend mode="normal" in2="BackgroundImageFix" result="effect1_dropShadow_332_6730"/>
<feBlend mode="normal" in="SourceGraphic" in2="effect1_dropShadow_332_6730" result="shape"/>
</filter>
</defs>
</svg>
