<svg width="58" height="58" viewBox="0 0 58 58" fill="none" xmlns="http://www.w3.org/2000/svg">
<g filter="url(#filter0_d_786_1536)">
<rect x="4" width="50" height="50" rx="5" fill="#569AFF"/>
</g>
<path d="M15.9353 32V18H22.4553C24.082 18 25.3486 18.3133 26.2553 18.94C27.162 19.5667 27.6153 20.46 27.6153 21.62C27.6153 22.7667 27.1886 23.66 26.3353 24.3C25.482 24.9267 24.3486 25.24 22.9353 25.24L23.3153 24.4C24.8886 24.4 26.1086 24.7133 26.9753 25.34C27.842 25.9667 28.2753 26.8733 28.2753 28.06C28.2753 29.2867 27.8086 30.2533 26.8753 30.96C25.9553 31.6533 24.6086 32 22.8353 32H15.9353ZM19.1553 29.6H22.7153C23.462 29.6 24.0286 29.4533 24.4153 29.16C24.802 28.8667 24.9953 28.4133 24.9953 27.8C24.9953 27.2133 24.802 26.78 24.4153 26.5C24.0286 26.2067 23.462 26.06 22.7153 26.06H19.1553V29.6ZM19.1553 23.8H22.1753C22.882 23.8 23.4153 23.66 23.7753 23.38C24.1353 23.0867 24.3153 22.66 24.3153 22.1C24.3153 21.54 24.1353 21.12 23.7753 20.84C23.4153 20.5467 22.882 20.4 22.1753 20.4H19.1553V23.8ZM39.8977 32L35.5377 25.26L38.1577 23.68L43.5777 32H39.8977ZM30.7977 32V18H34.0177V32H30.7977ZM33.0777 26.36V23.66H37.9577V26.36H33.0777ZM38.4577 25.36L35.4777 25L40.0177 18H43.4377L38.4577 25.36Z" fill="white"/>
<defs>
<filter id="filter0_d_786_1536" x="0" y="0" width="58" height="58" filterUnits="userSpaceOnUse" color-interpolation-filters="sRGB">
<feFlood flood-opacity="0" result="BackgroundImageFix"/>
<feColorMatrix in="SourceAlpha" type="matrix" values="0 0 0 0 0 0 0 0 0 0 0 0 0 0 0 0 0 0 127 0" result="hardAlpha"/>
<feOffset dy="4"/>
<feGaussianBlur stdDeviation="2"/>
<feComposite in2="hardAlpha" operator="out"/>
<feColorMatrix type="matrix" values="0 0 0 0 0 0 0 0 0 0 0 0 0 0 0 0 0 0 0.25 0"/>
<feBlend mode="normal" in2="BackgroundImageFix" result="effect1_dropShadow_786_1536"/>
<feBlend mode="normal" in="SourceGraphic" in2="effect1_dropShadow_786_1536" result="shape"/>
</filter>
</defs>
</svg>
