<svg width="152" height="52" viewBox="0 0 152 52" fill="none" xmlns="http://www.w3.org/2000/svg">
<g filter="url(#filter0_d_580_3083)">
<rect x="4" width="144" height="44" rx="6" fill="#5155FF"/>
<path d="M37.0668 15H38.5268V29H37.0668V15ZM28.3068 29H26.8268V15H28.3068V29ZM37.2068 22.54H28.1468V21.24H37.2068V22.54ZM47.4126 29.1C46.3192 29.1 45.3592 28.8733 44.5326 28.42C43.7059 27.9533 43.0592 27.32 42.5926 26.52C42.1259 25.7067 41.8926 24.78 41.8926 23.74C41.8926 22.7 42.1126 21.78 42.5526 20.98C43.0059 20.18 43.6192 19.5533 44.3926 19.1C45.1792 18.6333 46.0592 18.4 47.0326 18.4C48.0192 18.4 48.8926 18.6267 49.6526 19.08C50.4259 19.52 51.0326 20.1467 51.4726 20.96C51.9126 21.76 52.1326 22.6867 52.1326 23.74C52.1326 23.8067 52.1259 23.88 52.1126 23.96C52.1126 24.0267 52.1126 24.1 52.1126 24.18H42.9726V23.12H51.3526L50.7926 23.54C50.7926 22.78 50.6259 22.1067 50.2926 21.52C49.9726 20.92 49.5326 20.4533 48.9726 20.12C48.4126 19.7867 47.7659 19.62 47.0326 19.62C46.3126 19.62 45.6659 19.7867 45.0926 20.12C44.5192 20.4533 44.0726 20.92 43.7526 21.52C43.4326 22.12 43.2726 22.8067 43.2726 23.58V23.8C43.2726 24.6 43.4459 25.3067 43.7926 25.92C44.1526 26.52 44.6459 26.9933 45.2726 27.34C45.9126 27.6733 46.6392 27.84 47.4526 27.84C48.0926 27.84 48.6859 27.7267 49.2326 27.5C49.7926 27.2733 50.2726 26.9267 50.6726 26.46L51.4726 27.38C51.0059 27.94 50.4192 28.3667 49.7126 28.66C49.0192 28.9533 48.2526 29.1 47.4126 29.1ZM53.141 28.98L53.241 27.76C53.3343 27.7733 53.421 27.7933 53.501 27.82C53.5943 27.8333 53.6743 27.84 53.741 27.84C54.1677 27.84 54.5077 27.68 54.761 27.36C55.0277 27.04 55.2277 26.6133 55.361 26.08C55.4943 25.5467 55.5877 24.9467 55.641 24.28C55.6943 23.6 55.741 22.92 55.781 22.24L55.961 18.5H63.661V29H62.241V19.32L62.601 19.74H56.881L57.221 19.3L57.061 22.34C57.021 23.2467 56.9477 24.1133 56.841 24.94C56.7477 25.7667 56.5943 26.4933 56.381 27.12C56.181 27.7467 55.901 28.24 55.541 28.6C55.181 28.9467 54.721 29.12 54.161 29.12C54.001 29.12 53.8343 29.1067 53.661 29.08C53.501 29.0533 53.3277 29.02 53.141 28.98ZM72.1977 29.1C71.1044 29.1 70.1444 28.8733 69.3177 28.42C68.4911 27.9533 67.8444 27.32 67.3777 26.52C66.9111 25.7067 66.6777 24.78 66.6777 23.74C66.6777 22.7 66.8977 21.78 67.3377 20.98C67.7911 20.18 68.4044 19.5533 69.1777 19.1C69.9644 18.6333 70.8444 18.4 71.8177 18.4C72.8044 18.4 73.6777 18.6267 74.4377 19.08C75.2111 19.52 75.8177 20.1467 76.2577 20.96C76.6977 21.76 76.9177 22.6867 76.9177 23.74C76.9177 23.8067 76.9111 23.88 76.8977 23.96C76.8977 24.0267 76.8977 24.1 76.8977 24.18H67.7577V23.12H76.1377L75.5777 23.54C75.5777 22.78 75.4111 22.1067 75.0777 21.52C74.7577 20.92 74.3177 20.4533 73.7577 20.12C73.1977 19.7867 72.5511 19.62 71.8177 19.62C71.0977 19.62 70.4511 19.7867 69.8777 20.12C69.3044 20.4533 68.8577 20.92 68.5377 21.52C68.2177 22.12 68.0577 22.8067 68.0577 23.58V23.8C68.0577 24.6 68.2311 25.3067 68.5777 25.92C68.9377 26.52 69.4311 26.9933 70.0577 27.34C70.6977 27.6733 71.4244 27.84 72.2377 27.84C72.8777 27.84 73.4711 27.7267 74.0177 27.5C74.5777 27.2733 75.0577 26.9267 75.4577 26.46L76.2577 27.38C75.7911 27.94 75.2044 28.3667 74.4977 28.66C73.8044 28.9533 73.0377 29.1 72.1977 29.1ZM80.061 29V18.5H87.501V19.74H81.121L81.481 19.38V29H80.061ZM96.0732 29V26.68L96.0132 26.3V22.42C96.0132 21.5267 95.7599 20.84 95.2532 20.36C94.7599 19.88 94.0199 19.64 93.0332 19.64C92.3532 19.64 91.7065 19.7533 91.0932 19.98C90.4799 20.2067 89.9599 20.5067 89.5332 20.88L88.8932 19.82C89.4265 19.3667 90.0665 19.02 90.8132 18.78C91.5599 18.5267 92.3465 18.4 93.1732 18.4C94.5332 18.4 95.5799 18.74 96.3132 19.42C97.0599 20.0867 97.4332 21.1067 97.4332 22.48V29H96.0732ZM92.4532 29.1C91.6665 29.1 90.9799 28.9733 90.3932 28.72C89.8199 28.4533 89.3799 28.0933 89.0732 27.64C88.7665 27.1733 88.6132 26.64 88.6132 26.04C88.6132 25.4933 88.7399 25 88.9932 24.56C89.2599 24.1067 89.6865 23.7467 90.2732 23.48C90.8732 23.2 91.6732 23.06 92.6732 23.06H96.2932V24.12H92.7132C91.6999 24.12 90.9932 24.3 90.5932 24.66C90.2065 25.02 90.0132 25.4667 90.0132 26C90.0132 26.6 90.2465 27.08 90.7132 27.44C91.1799 27.8 91.8332 27.98 92.6732 27.98C93.4732 27.98 94.1599 27.8 94.7332 27.44C95.3199 27.0667 95.7465 26.5333 96.0132 25.84L96.3332 26.82C96.0665 27.5133 95.5999 28.0667 94.9332 28.48C94.2799 28.8933 93.4532 29.1 92.4532 29.1ZM99.2934 28.98L99.3934 27.76C99.4867 27.7733 99.5734 27.7933 99.6534 27.82C99.7467 27.8333 99.8267 27.84 99.8934 27.84C100.32 27.84 100.66 27.68 100.913 27.36C101.18 27.04 101.38 26.6133 101.513 26.08C101.647 25.5467 101.74 24.9467 101.793 24.28C101.847 23.6 101.893 22.92 101.933 22.24L102.113 18.5H109.813V29H108.393V19.32L108.753 19.74H103.033L103.373 19.3L103.213 22.34C103.173 23.2467 103.1 24.1133 102.993 24.94C102.9 25.7667 102.747 26.4933 102.533 27.12C102.333 27.7467 102.053 28.24 101.693 28.6C101.333 28.9467 100.873 29.12 100.313 29.12C100.153 29.12 99.9867 29.1067 99.8134 29.08C99.6534 29.0533 99.48 29.02 99.2934 28.98ZM124.09 29V18.5H125.51V29H124.09ZM118.27 22.2C119.59 22.2133 120.597 22.5067 121.29 23.08C121.983 23.6533 122.33 24.48 122.33 25.56C122.33 26.68 121.957 27.54 121.21 28.14C120.463 28.74 119.397 29.0333 118.01 29.02L113.85 29V18.5H115.27V22.16L118.27 22.2ZM117.91 27.94C118.897 27.9533 119.637 27.76 120.13 27.36C120.637 26.9467 120.89 26.3467 120.89 25.56C120.89 24.7733 120.643 24.2 120.15 23.84C119.657 23.4667 118.91 23.2733 117.91 23.26L115.27 23.22V27.9L117.91 27.94Z" fill="white"/>
</g>
<defs>
<filter id="filter0_d_580_3083" x="0" y="0" width="152" height="52" filterUnits="userSpaceOnUse" color-interpolation-filters="sRGB">
<feFlood flood-opacity="0" result="BackgroundImageFix"/>
<feColorMatrix in="SourceAlpha" type="matrix" values="0 0 0 0 0 0 0 0 0 0 0 0 0 0 0 0 0 0 127 0" result="hardAlpha"/>
<feOffset dy="4"/>
<feGaussianBlur stdDeviation="2"/>
<feComposite in2="hardAlpha" operator="out"/>
<feColorMatrix type="matrix" values="0 0 0 0 0 0 0 0 0 0 0 0 0 0 0 0 0 0 0.25 0"/>
<feBlend mode="normal" in2="BackgroundImageFix" result="effect1_dropShadow_580_3083"/>
<feBlend mode="normal" in="SourceGraphic" in2="effect1_dropShadow_580_3083" result="shape"/>
</filter>
</defs>
</svg>
