<svg width="159" height="52" viewBox="0 0 159 52" fill="none" xmlns="http://www.w3.org/2000/svg">
<g filter="url(#filter0_d_590_1624)">
<rect x="4" width="151" height="44" rx="6" fill="#5155FF"/>
<path d="M26.7428 29V15H27.9628L34.3628 25.92H33.7228L40.0628 15H41.2828V29H39.8628V17.22H40.2028L34.3628 27.22H33.6628L27.7828 17.22H28.1628V29H26.7428ZM45.6606 29V18.5H47.0806V26.84L54.1006 18.5H55.3606V29H53.9406V20.64L46.9406 29H45.6606ZM59.4302 29V18.5H60.8502V23.14H67.4702V18.5H68.8902V29H67.4702V24.36H60.8502V29H59.4302ZM72.9263 29V18.5H74.3463V26.84L81.3663 18.5H82.6263V29H81.2063V20.64L74.2063 29H72.9263ZM91.0958 29.1C90.0558 29.1 89.1224 28.8733 88.2958 28.42C87.4824 27.9533 86.8424 27.32 86.3758 26.52C85.9091 25.7067 85.6758 24.78 85.6758 23.74C85.6758 22.6867 85.9091 21.76 86.3758 20.96C86.8424 20.16 87.4824 19.5333 88.2958 19.08C89.1224 18.6267 90.0558 18.4 91.0958 18.4C91.9891 18.4 92.7958 18.5733 93.5158 18.92C94.2358 19.2667 94.8024 19.7867 95.2158 20.48L94.1558 21.2C93.7958 20.6667 93.3491 20.2733 92.8158 20.02C92.2824 19.7667 91.7024 19.64 91.0758 19.64C90.3291 19.64 89.6558 19.8133 89.0558 20.16C88.4558 20.4933 87.9824 20.9667 87.6358 21.58C87.2891 22.1933 87.1158 22.9133 87.1158 23.74C87.1158 24.5667 87.2891 25.2867 87.6358 25.9C87.9824 26.5133 88.4558 26.9933 89.0558 27.34C89.6558 27.6733 90.3291 27.84 91.0758 27.84C91.7024 27.84 92.2824 27.7133 92.8158 27.46C93.3491 27.2067 93.7958 26.82 94.1558 26.3L95.2158 27.02C94.8024 27.7 94.2358 28.22 93.5158 28.58C92.7958 28.9267 91.9891 29.1 91.0958 29.1ZM99.77 29V19.36L100.13 19.74H95.79V18.5H105.17V19.74H100.83L101.19 19.36V29H99.77ZM112.643 29.1C111.736 29.1 110.916 28.8933 110.183 28.48C109.45 28.0533 108.863 27.4467 108.423 26.66C107.996 25.86 107.783 24.8867 107.783 23.74C107.783 22.5933 107.996 21.6267 108.423 20.84C108.85 20.04 109.43 19.4333 110.163 19.02C110.896 18.6067 111.723 18.4 112.643 18.4C113.643 18.4 114.536 18.6267 115.323 19.08C116.123 19.52 116.75 20.1467 117.203 20.96C117.656 21.76 117.883 22.6867 117.883 23.74C117.883 24.8067 117.656 25.74 117.203 26.54C116.75 27.34 116.123 27.9667 115.323 28.42C114.536 28.8733 113.643 29.1 112.643 29.1ZM107.223 32.88V18.5H108.583V21.66L108.443 23.76L108.643 25.88V32.88H107.223ZM112.543 27.84C113.29 27.84 113.956 27.6733 114.543 27.34C115.13 26.9933 115.596 26.5133 115.943 25.9C116.29 25.2733 116.463 24.5533 116.463 23.74C116.463 22.9267 116.29 22.2133 115.943 21.6C115.596 20.9867 115.13 20.5067 114.543 20.16C113.956 19.8133 113.29 19.64 112.543 19.64C111.796 19.64 111.123 19.8133 110.523 20.16C109.936 20.5067 109.47 20.9867 109.123 21.6C108.79 22.2133 108.623 22.9267 108.623 23.74C108.623 24.5533 108.79 25.2733 109.123 25.9C109.47 26.5133 109.936 26.9933 110.523 27.34C111.123 27.6733 111.796 27.84 112.543 27.84ZM131.174 29V18.5H132.594V29H131.174ZM125.354 22.2C126.674 22.2133 127.681 22.5067 128.374 23.08C129.067 23.6533 129.414 24.48 129.414 25.56C129.414 26.68 129.041 27.54 128.294 28.14C127.547 28.74 126.481 29.0333 125.094 29.02L120.934 29V18.5H122.354V22.16L125.354 22.2ZM124.994 27.94C125.981 27.9533 126.721 27.76 127.214 27.36C127.721 26.9467 127.974 26.3467 127.974 25.56C127.974 24.7733 127.727 24.2 127.234 23.84C126.741 23.4667 125.994 23.2733 124.994 23.26L122.354 23.22V27.9L124.994 27.94Z" fill="white"/>
</g>
<defs>
<filter id="filter0_d_590_1624" x="0" y="0" width="159" height="52" filterUnits="userSpaceOnUse" color-interpolation-filters="sRGB">
<feFlood flood-opacity="0" result="BackgroundImageFix"/>
<feColorMatrix in="SourceAlpha" type="matrix" values="0 0 0 0 0 0 0 0 0 0 0 0 0 0 0 0 0 0 127 0" result="hardAlpha"/>
<feOffset dy="4"/>
<feGaussianBlur stdDeviation="2"/>
<feComposite in2="hardAlpha" operator="out"/>
<feColorMatrix type="matrix" values="0 0 0 0 0 0 0 0 0 0 0 0 0 0 0 0 0 0 0.25 0"/>
<feBlend mode="normal" in2="BackgroundImageFix" result="effect1_dropShadow_590_1624"/>
<feBlend mode="normal" in="SourceGraphic" in2="effect1_dropShadow_590_1624" result="shape"/>
</filter>
</defs>
</svg>
