<svg width="281" height="43" viewBox="0 0 281 43" fill="none" xmlns="http://www.w3.org/2000/svg">
<g filter="url(#filter0_d_580_2993)">
<rect x="4" width="273" height="35" rx="10" fill="#47D263"/>
</g>
<path d="M99.3227 22.56V12.64H94.5227L94.4627 14.68C94.4227 15.5467 94.3627 16.3667 94.2827 17.14C94.2161 17.9133 94.1094 18.62 93.9627 19.26C93.8161 19.8867 93.6227 20.42 93.3827 20.86C93.1561 21.3 92.8694 21.6133 92.5227 21.8L89.0627 21.36C89.5427 21.3733 89.9361 21.2067 90.2427 20.86C90.5627 20.5133 90.8161 20.0267 91.0027 19.4C91.1894 18.76 91.3227 18.0133 91.4027 17.16C91.4961 16.3067 91.5627 15.38 91.6027 14.38L91.7627 10H102.523V22.56H99.3227ZM88.6027 26.9L88.6227 21.36H104.483V26.9H101.483V24H91.6027V26.9H88.6027ZM111.347 24.16C110.2 24.16 109.18 23.92 108.287 23.44C107.407 22.96 106.707 22.3067 106.187 21.48C105.68 20.64 105.427 19.6867 105.427 18.62C105.427 17.54 105.68 16.5867 106.187 15.76C106.707 14.92 107.407 14.2667 108.287 13.8C109.18 13.32 110.2 13.08 111.347 13.08C112.48 13.08 113.493 13.32 114.387 13.8C115.28 14.2667 115.98 14.9133 116.487 15.74C116.993 16.5667 117.247 17.5267 117.247 18.62C117.247 19.6867 116.993 20.64 116.487 21.48C115.98 22.3067 115.28 22.96 114.387 23.44C113.493 23.92 112.48 24.16 111.347 24.16ZM111.347 21.6C111.867 21.6 112.333 21.48 112.747 21.24C113.16 21 113.487 20.66 113.727 20.22C113.967 19.7667 114.087 19.2333 114.087 18.62C114.087 17.9933 113.967 17.46 113.727 17.02C113.487 16.58 113.16 16.24 112.747 16C112.333 15.76 111.867 15.64 111.347 15.64C110.827 15.64 110.36 15.76 109.947 16C109.533 16.24 109.2 16.58 108.947 17.02C108.707 17.46 108.587 17.9933 108.587 18.62C108.587 19.2333 108.707 19.7667 108.947 20.22C109.2 20.66 109.533 21 109.947 21.24C110.36 21.48 110.827 21.6 111.347 21.6ZM124.733 24.24C123.853 24.24 123.053 24.1133 122.333 23.86C121.613 23.5933 120.986 23.1867 120.453 22.64C119.933 22.08 119.526 21.3667 119.233 20.5C118.953 19.6333 118.813 18.6 118.813 17.4C118.813 16.5467 118.886 15.7667 119.033 15.06C119.179 14.3533 119.399 13.7133 119.693 13.14C119.986 12.5533 120.359 12.04 120.813 11.6C121.279 11.1467 121.819 10.7733 122.433 10.48C123.059 10.1733 123.766 9.94 124.553 9.78L129.673 8.76L130.093 11.44L125.573 12.34C125.306 12.3933 124.999 12.4667 124.653 12.56C124.319 12.64 123.979 12.7667 123.633 12.94C123.299 13.1133 122.986 13.36 122.693 13.68C122.413 13.9867 122.186 14.3933 122.013 14.9C121.839 15.3933 121.753 16.0067 121.753 16.74C121.753 16.9667 121.759 17.14 121.773 17.26C121.799 17.38 121.819 17.5067 121.833 17.64C121.859 17.7733 121.873 17.98 121.873 18.26L120.873 17.28C121.166 16.6533 121.539 16.12 121.993 15.68C122.459 15.24 122.993 14.9067 123.593 14.68C124.206 14.44 124.886 14.32 125.633 14.32C126.646 14.32 127.533 14.5267 128.293 14.94C129.066 15.34 129.666 15.9067 130.093 16.64C130.519 17.3733 130.733 18.2067 130.733 19.14C130.733 20.1533 130.479 21.0467 129.973 21.82C129.466 22.58 128.759 23.1733 127.853 23.6C126.959 24.0267 125.919 24.24 124.733 24.24ZM124.893 21.82C125.413 21.82 125.873 21.7067 126.273 21.48C126.673 21.24 126.979 20.9267 127.193 20.54C127.419 20.14 127.533 19.6933 127.533 19.2C127.533 18.72 127.419 18.2933 127.193 17.92C126.979 17.5467 126.673 17.2533 126.273 17.04C125.873 16.8267 125.406 16.72 124.873 16.72C124.353 16.72 123.886 16.8267 123.473 17.04C123.059 17.24 122.739 17.52 122.513 17.88C122.286 18.24 122.173 18.66 122.173 19.14C122.173 19.6333 122.286 20.0867 122.513 20.5C122.753 20.9 123.073 21.22 123.473 21.46C123.886 21.7 124.359 21.82 124.893 21.82ZM139.114 24V21.9L138.914 21.44V17.68C138.914 17.0133 138.707 16.4933 138.294 16.12C137.894 15.7467 137.274 15.56 136.434 15.56C135.86 15.56 135.294 15.6533 134.734 15.84C134.187 16.0133 133.72 16.2533 133.334 16.56L132.214 14.38C132.8 13.9667 133.507 13.6467 134.334 13.42C135.16 13.1933 136 13.08 136.854 13.08C138.494 13.08 139.767 13.4667 140.674 14.24C141.58 15.0133 142.034 16.22 142.034 17.86V24H139.114ZM135.834 24.16C134.994 24.16 134.274 24.02 133.674 23.74C133.074 23.4467 132.614 23.0533 132.294 22.56C131.974 22.0667 131.814 21.5133 131.814 20.9C131.814 20.26 131.967 19.7 132.274 19.22C132.594 18.74 133.094 18.3667 133.774 18.1C134.454 17.82 135.34 17.68 136.434 17.68H139.294V19.5H136.774C136.04 19.5 135.534 19.62 135.254 19.86C134.987 20.1 134.854 20.4 134.854 20.76C134.854 21.16 135.007 21.48 135.314 21.72C135.634 21.9467 136.067 22.06 136.614 22.06C137.134 22.06 137.6 21.94 138.014 21.7C138.427 21.4467 138.727 21.08 138.914 20.6L139.394 22.04C139.167 22.7333 138.754 23.26 138.154 23.62C137.554 23.98 136.78 24.16 135.834 24.16ZM144.744 24V13.24H150.244C151.591 13.24 152.644 13.4867 153.404 13.98C154.164 14.46 154.544 15.14 154.544 16.02C154.544 16.9 154.184 17.5933 153.464 18.1C152.757 18.5933 151.817 18.84 150.644 18.84L150.964 18.12C152.271 18.12 153.244 18.36 153.884 18.84C154.537 19.32 154.864 20.02 154.864 20.94C154.864 21.8867 154.504 22.6333 153.784 23.18C153.064 23.7267 151.964 24 150.484 24H144.744ZM147.604 21.88H150.224C150.797 21.88 151.224 21.7867 151.504 21.6C151.797 21.4 151.944 21.1 151.944 20.7C151.944 20.2867 151.811 19.9867 151.544 19.8C151.277 19.6 150.857 19.5 150.284 19.5H147.604V21.88ZM147.604 17.66H149.964C150.511 17.66 150.917 17.56 151.184 17.36C151.464 17.16 151.604 16.8733 151.604 16.5C151.604 16.1133 151.464 15.8267 151.184 15.64C150.917 15.4533 150.511 15.36 149.964 15.36H147.604V17.66ZM157.186 24V13.24H160.286V19.64L165.526 13.24H168.386V24H165.286V17.6L160.066 24H157.186ZM173.685 24V15.08L174.385 15.8H170.045V13.24H180.425V15.8H176.085L176.785 15.08V24H173.685ZM187.908 16.68C189.321 16.6933 190.395 17.0133 191.128 17.64C191.875 18.2533 192.248 19.1267 192.248 20.26C192.248 21.4467 191.828 22.3733 190.988 23.04C190.148 23.6933 188.981 24.02 187.488 24.02L182.088 24V13.24H185.188V16.68H187.908ZM187.208 21.8C187.808 21.8133 188.268 21.6867 188.588 21.42C188.908 21.1533 189.068 20.7533 189.068 20.22C189.068 19.6867 188.908 19.3067 188.588 19.08C188.268 18.84 187.808 18.7133 187.208 18.7L185.188 18.68V21.8H187.208Z" fill="white"/>
<defs>
<filter id="filter0_d_580_2993" x="0" y="0" width="281" height="43" filterUnits="userSpaceOnUse" color-interpolation-filters="sRGB">
<feFlood flood-opacity="0" result="BackgroundImageFix"/>
<feColorMatrix in="SourceAlpha" type="matrix" values="0 0 0 0 0 0 0 0 0 0 0 0 0 0 0 0 0 0 127 0" result="hardAlpha"/>
<feOffset dy="4"/>
<feGaussianBlur stdDeviation="2"/>
<feComposite in2="hardAlpha" operator="out"/>
<feColorMatrix type="matrix" values="0 0 0 0 0 0 0 0 0 0 0 0 0 0 0 0 0 0 0.25 0"/>
<feBlend mode="normal" in2="BackgroundImageFix" result="effect1_dropShadow_580_2993"/>
<feBlend mode="normal" in="SourceGraphic" in2="effect1_dropShadow_580_2993" result="shape"/>
</filter>
</defs>
</svg>
