<svg width="281" height="43" viewBox="0 0 281 43" fill="none" xmlns="http://www.w3.org/2000/svg">
<g filter="url(#filter0_d_332_6773)">
<rect x="4" width="273" height="35" rx="10" fill="#47D263"/>
</g>
<path d="M55.2114 22.56V12.64H50.4114L50.3514 14.68C50.3114 15.5467 50.2514 16.3667 50.1714 17.14C50.1047 17.9133 49.9981 18.62 49.8514 19.26C49.7047 19.8867 49.5114 20.42 49.2714 20.86C49.0447 21.3 48.7581 21.6133 48.4114 21.8L44.9514 21.36C45.4314 21.3733 45.8247 21.2067 46.1314 20.86C46.4514 20.5133 46.7047 20.0267 46.8914 19.4C47.0781 18.76 47.2114 18.0133 47.2914 17.16C47.3847 16.3067 47.4514 15.38 47.4914 14.38L47.6514 10H58.4114V22.56H55.2114ZM44.4914 26.9L44.5114 21.36H60.3714V26.9H57.3714V24H47.4914V26.9H44.4914ZM67.2353 24.16C66.0886 24.16 65.0686 23.92 64.1753 23.44C63.2953 22.96 62.5953 22.3067 62.0753 21.48C61.5686 20.64 61.3153 19.6867 61.3153 18.62C61.3153 17.54 61.5686 16.5867 62.0753 15.76C62.5953 14.92 63.2953 14.2667 64.1753 13.8C65.0686 13.32 66.0886 13.08 67.2353 13.08C68.3686 13.08 69.382 13.32 70.2753 13.8C71.1686 14.2667 71.8686 14.9133 72.3753 15.74C72.882 16.5667 73.1353 17.5267 73.1353 18.62C73.1353 19.6867 72.882 20.64 72.3753 21.48C71.8686 22.3067 71.1686 22.96 70.2753 23.44C69.382 23.92 68.3686 24.16 67.2353 24.16ZM67.2353 21.6C67.7553 21.6 68.222 21.48 68.6353 21.24C69.0486 21 69.3753 20.66 69.6153 20.22C69.8553 19.7667 69.9753 19.2333 69.9753 18.62C69.9753 17.9933 69.8553 17.46 69.6153 17.02C69.3753 16.58 69.0486 16.24 68.6353 16C68.222 15.76 67.7553 15.64 67.2353 15.64C66.7153 15.64 66.2486 15.76 65.8353 16C65.422 16.24 65.0886 16.58 64.8353 17.02C64.5953 17.46 64.4753 17.9933 64.4753 18.62C64.4753 19.2333 64.5953 19.7667 64.8353 20.22C65.0886 20.66 65.422 21 65.8353 21.24C66.2486 21.48 66.7153 21.6 67.2353 21.6ZM80.6213 24.24C79.7413 24.24 78.9413 24.1133 78.2213 23.86C77.5013 23.5933 76.8746 23.1867 76.3413 22.64C75.8213 22.08 75.4146 21.3667 75.1213 20.5C74.8413 19.6333 74.7013 18.6 74.7013 17.4C74.7013 16.5467 74.7746 15.7667 74.9213 15.06C75.0679 14.3533 75.2879 13.7133 75.5813 13.14C75.8746 12.5533 76.2479 12.04 76.7013 11.6C77.1679 11.1467 77.7079 10.7733 78.3213 10.48C78.9479 10.1733 79.6546 9.94 80.4413 9.78L85.5613 8.76L85.9813 11.44L81.4613 12.34C81.1946 12.3933 80.8879 12.4667 80.5413 12.56C80.2079 12.64 79.8679 12.7667 79.5213 12.94C79.1879 13.1133 78.8746 13.36 78.5813 13.68C78.3013 13.9867 78.0746 14.3933 77.9013 14.9C77.7279 15.3933 77.6413 16.0067 77.6413 16.74C77.6413 16.9667 77.6479 17.14 77.6613 17.26C77.6879 17.38 77.7079 17.5067 77.7213 17.64C77.7479 17.7733 77.7613 17.98 77.7613 18.26L76.7613 17.28C77.0546 16.6533 77.4279 16.12 77.8813 15.68C78.3479 15.24 78.8813 14.9067 79.4813 14.68C80.0946 14.44 80.7746 14.32 81.5213 14.32C82.5346 14.32 83.4213 14.5267 84.1813 14.94C84.9546 15.34 85.5546 15.9067 85.9813 16.64C86.4079 17.3733 86.6213 18.2067 86.6213 19.14C86.6213 20.1533 86.3679 21.0467 85.8613 21.82C85.3546 22.58 84.6479 23.1733 83.7413 23.6C82.8479 24.0267 81.8079 24.24 80.6213 24.24ZM80.7813 21.82C81.3013 21.82 81.7613 21.7067 82.1613 21.48C82.5613 21.24 82.8679 20.9267 83.0813 20.54C83.3079 20.14 83.4213 19.6933 83.4213 19.2C83.4213 18.72 83.3079 18.2933 83.0813 17.92C82.8679 17.5467 82.5613 17.2533 82.1613 17.04C81.7613 16.8267 81.2946 16.72 80.7613 16.72C80.2413 16.72 79.7746 16.8267 79.3613 17.04C78.9479 17.24 78.6279 17.52 78.4013 17.88C78.1746 18.24 78.0613 18.66 78.0613 19.14C78.0613 19.6333 78.1746 20.0867 78.4013 20.5C78.6413 20.9 78.9613 21.22 79.3613 21.46C79.7746 21.7 80.2479 21.82 80.7813 21.82ZM95.0025 24V21.9L94.8025 21.44V17.68C94.8025 17.0133 94.5958 16.4933 94.1825 16.12C93.7825 15.7467 93.1625 15.56 92.3225 15.56C91.7492 15.56 91.1825 15.6533 90.6225 15.84C90.0758 16.0133 89.6092 16.2533 89.2225 16.56L88.1025 14.38C88.6892 13.9667 89.3958 13.6467 90.2225 13.42C91.0492 13.1933 91.8892 13.08 92.7425 13.08C94.3825 13.08 95.6558 13.4667 96.5625 14.24C97.4692 15.0133 97.9225 16.22 97.9225 17.86V24H95.0025ZM91.7225 24.16C90.8825 24.16 90.1625 24.02 89.5625 23.74C88.9625 23.4467 88.5025 23.0533 88.1825 22.56C87.8625 22.0667 87.7025 21.5133 87.7025 20.9C87.7025 20.26 87.8558 19.7 88.1625 19.22C88.4825 18.74 88.9825 18.3667 89.6625 18.1C90.3425 17.82 91.2292 17.68 92.3225 17.68H95.1825V19.5H92.6625C91.9292 19.5 91.4225 19.62 91.1425 19.86C90.8758 20.1 90.7425 20.4 90.7425 20.76C90.7425 21.16 90.8958 21.48 91.2025 21.72C91.5225 21.9467 91.9558 22.06 92.5025 22.06C93.0225 22.06 93.4892 21.94 93.9025 21.7C94.3158 21.4467 94.6158 21.08 94.8025 20.6L95.2825 22.04C95.0558 22.7333 94.6425 23.26 94.0425 23.62C93.4425 23.98 92.6692 24.16 91.7225 24.16ZM100.633 24V13.24H106.133C107.479 13.24 108.533 13.4867 109.293 13.98C110.053 14.46 110.433 15.14 110.433 16.02C110.433 16.9 110.073 17.5933 109.353 18.1C108.646 18.5933 107.706 18.84 106.533 18.84L106.853 18.12C108.159 18.12 109.133 18.36 109.773 18.84C110.426 19.32 110.753 20.02 110.753 20.94C110.753 21.8867 110.393 22.6333 109.673 23.18C108.953 23.7267 107.853 24 106.373 24H100.633ZM103.493 21.88H106.113C106.686 21.88 107.113 21.7867 107.393 21.6C107.686 21.4 107.833 21.1 107.833 20.7C107.833 20.2867 107.699 19.9867 107.433 19.8C107.166 19.6 106.746 19.5 106.173 19.5H103.493V21.88ZM103.493 17.66H105.853C106.399 17.66 106.806 17.56 107.073 17.36C107.353 17.16 107.493 16.8733 107.493 16.5C107.493 16.1133 107.353 15.8267 107.073 15.64C106.806 15.4533 106.399 15.36 105.853 15.36H103.493V17.66ZM113.074 24V13.24H116.174V19.64L121.414 13.24H124.274V24H121.174V17.6L115.954 24H113.074ZM129.573 24V15.08L130.273 15.8H125.933V13.24H136.313V15.8H131.973L132.673 15.08V24H129.573ZM143.797 16.68C145.21 16.6933 146.283 17.0133 147.017 17.64C147.763 18.2533 148.137 19.1267 148.137 20.26C148.137 21.4467 147.717 22.3733 146.877 23.04C146.037 23.6933 144.87 24.02 143.377 24.02L137.977 24V13.24H141.077V16.68H143.797ZM143.097 21.8C143.697 21.8133 144.157 21.6867 144.477 21.42C144.797 21.1533 144.957 20.7533 144.957 20.22C144.957 19.6867 144.797 19.3067 144.477 19.08C144.157 18.84 143.697 18.7133 143.097 18.7L141.077 18.68V21.8H143.097ZM162.19 24V21.9L161.99 21.44V17.68C161.99 17.0133 161.783 16.4933 161.37 16.12C160.97 15.7467 160.35 15.56 159.51 15.56C158.937 15.56 158.37 15.6533 157.81 15.84C157.263 16.0133 156.797 16.2533 156.41 16.56L155.29 14.38C155.877 13.9667 156.583 13.6467 157.41 13.42C158.237 13.1933 159.077 13.08 159.93 13.08C161.57 13.08 162.843 13.4667 163.75 14.24C164.657 15.0133 165.11 16.22 165.11 17.86V24H162.19ZM158.91 24.16C158.07 24.16 157.35 24.02 156.75 23.74C156.15 23.4467 155.69 23.0533 155.37 22.56C155.05 22.0667 154.89 21.5133 154.89 20.9C154.89 20.26 155.043 19.7 155.35 19.22C155.67 18.74 156.17 18.3667 156.85 18.1C157.53 17.82 158.417 17.68 159.51 17.68H162.37V19.5H159.85C159.117 19.5 158.61 19.62 158.33 19.86C158.063 20.1 157.93 20.4 157.93 20.76C157.93 21.16 158.083 21.48 158.39 21.72C158.71 21.9467 159.143 22.06 159.69 22.06C160.21 22.06 160.677 21.94 161.09 21.7C161.503 21.4467 161.803 21.08 161.99 20.6L162.47 22.04C162.243 22.7333 161.83 23.26 161.23 23.62C160.63 23.98 159.857 24.16 158.91 24.16ZM175.22 22.6V15.8H171.7L171.64 17.18C171.614 17.7533 171.58 18.3 171.54 18.82C171.5 19.34 171.42 19.8133 171.3 20.24C171.194 20.6533 171.034 21.0067 170.82 21.3C170.607 21.58 170.32 21.7733 169.96 21.88L166.88 21.44C167.267 21.44 167.58 21.3267 167.82 21.1C168.06 20.86 168.247 20.5333 168.38 20.12C168.514 19.6933 168.614 19.2133 168.68 18.68C168.747 18.1333 168.794 17.56 168.82 16.96L168.96 13.24H178.34V22.6H175.22ZM166.52 26.32V21.44H179.88V26.32H176.98V24H169.42V26.32H166.52ZM181.844 24V13.24H185.104L189.164 20.6H187.864L192.204 13.24H195.124L195.164 24H192.344V16.44L192.824 16.76L189.124 22.96H187.804L184.084 16.54L184.664 16.4V24H181.844ZM198.152 24V13.24H201.252V19.64L206.492 13.24H209.352V24H206.252V17.6L201.032 24H198.152ZM212.352 24V13.24H215.452V17.44H220.132V13.24H223.252V24H220.132V19.98H215.452V24H212.352ZM232.678 24V21.9L232.478 21.44V17.68C232.478 17.0133 232.272 16.4933 231.858 16.12C231.458 15.7467 230.838 15.56 229.998 15.56C229.425 15.56 228.858 15.6533 228.298 15.84C227.752 16.0133 227.285 16.2533 226.898 16.56L225.778 14.38C226.365 13.9667 227.072 13.6467 227.898 13.42C228.725 13.1933 229.565 13.08 230.418 13.08C232.058 13.08 233.332 13.4667 234.238 14.24C235.145 15.0133 235.598 16.22 235.598 17.86V24H232.678ZM229.398 24.16C228.558 24.16 227.838 24.02 227.238 23.74C226.638 23.4467 226.178 23.0533 225.858 22.56C225.538 22.0667 225.378 21.5133 225.378 20.9C225.378 20.26 225.532 19.7 225.838 19.22C226.158 18.74 226.658 18.3667 227.338 18.1C228.018 17.82 228.905 17.68 229.998 17.68H232.858V19.5H230.338C229.605 19.5 229.098 19.62 228.818 19.86C228.552 20.1 228.418 20.4 228.418 20.76C228.418 21.16 228.572 21.48 228.878 21.72C229.198 21.9467 229.632 22.06 230.178 22.06C230.698 22.06 231.165 21.94 231.578 21.7C231.992 21.4467 232.292 21.08 232.478 20.6L232.958 22.04C232.732 22.7333 232.318 23.26 231.718 23.62C231.118 23.98 230.345 24.16 229.398 24.16Z" fill="white"/>
<defs>
<filter id="filter0_d_332_6773" x="0" y="0" width="281" height="43" filterUnits="userSpaceOnUse" color-interpolation-filters="sRGB">
<feFlood flood-opacity="0" result="BackgroundImageFix"/>
<feColorMatrix in="SourceAlpha" type="matrix" values="0 0 0 0 0 0 0 0 0 0 0 0 0 0 0 0 0 0 127 0" result="hardAlpha"/>
<feOffset dy="4"/>
<feGaussianBlur stdDeviation="2"/>
<feComposite in2="hardAlpha" operator="out"/>
<feColorMatrix type="matrix" values="0 0 0 0 0 0 0 0 0 0 0 0 0 0 0 0 0 0 0.25 0"/>
<feBlend mode="normal" in2="BackgroundImageFix" result="effect1_dropShadow_332_6773"/>
<feBlend mode="normal" in="SourceGraphic" in2="effect1_dropShadow_332_6773" result="shape"/>
</filter>
</defs>
</svg>
