<svg width="118" height="53" viewBox="0 0 118 53" fill="none" xmlns="http://www.w3.org/2000/svg">
<g filter="url(#filter0_d_332_6860)">
<rect x="4" width="110" height="45" rx="6" fill="#5155FF"/>
</g>
<path d="M26.9563 29L33.3563 15H34.8163L41.2163 29H39.6563L33.7763 15.86H34.3763L28.4963 29H26.9563ZM29.4763 25.26L29.9163 24.06H38.0563L38.4963 25.26H29.4763ZM48.9791 29.1C48.0724 29.1 47.2524 28.8933 46.5191 28.48C45.7857 28.0533 45.1991 27.4467 44.7591 26.66C44.3324 25.86 44.1191 24.8867 44.1191 23.74C44.1191 22.5933 44.3324 21.6267 44.7591 20.84C45.1857 20.04 45.7657 19.4333 46.4991 19.02C47.2324 18.6067 48.0591 18.4 48.9791 18.4C49.9791 18.4 50.8724 18.6267 51.6591 19.08C52.4591 19.52 53.0857 20.1467 53.5391 20.96C53.9924 21.76 54.2191 22.6867 54.2191 23.74C54.2191 24.8067 53.9924 25.74 53.5391 26.54C53.0857 27.34 52.4591 27.9667 51.6591 28.42C50.8724 28.8733 49.9791 29.1 48.9791 29.1ZM43.5591 32.88V18.5H44.9191V21.66L44.7791 23.76L44.9791 25.88V32.88H43.5591ZM48.8791 27.84C49.6257 27.84 50.2924 27.6733 50.8791 27.34C51.4657 26.9933 51.9324 26.5133 52.2791 25.9C52.6257 25.2733 52.7991 24.5533 52.7991 23.74C52.7991 22.9267 52.6257 22.2133 52.2791 21.6C51.9324 20.9867 51.4657 20.5067 50.8791 20.16C50.2924 19.8133 49.6257 19.64 48.8791 19.64C48.1324 19.64 47.4591 19.8133 46.8591 20.16C46.2724 20.5067 45.8057 20.9867 45.4591 21.6C45.1257 22.2133 44.9591 22.9267 44.9591 23.74C44.9591 24.5533 45.1257 25.2733 45.4591 25.9C45.8057 26.5133 46.2724 26.9933 46.8591 27.34C47.4591 27.6733 48.1324 27.84 48.8791 27.84ZM55.1789 29L59.6189 23.24L59.5989 23.94L55.3789 18.5H56.9789L60.4389 23L59.8389 22.98L63.2989 18.5H64.8589L60.5989 24L60.6189 23.24L65.0989 29H63.4789L59.8189 24.2L60.3789 24.28L56.7789 29H55.1789ZM67.4263 29V18.5H68.8463V26.84L75.8663 18.5H77.1263V29H75.7063V20.64L68.7063 29H67.4263ZM81.1958 29V18.5H85.8358C87.0224 18.5 87.9558 18.7267 88.6358 19.18C89.3291 19.6333 89.6758 20.3 89.6758 21.18C89.6758 22.0333 89.3491 22.6933 88.6958 23.16C88.0424 23.6133 87.1824 23.84 86.1158 23.84L86.3958 23.42C87.6491 23.42 88.5691 23.6533 89.1558 24.12C89.7424 24.5867 90.0358 25.26 90.0358 26.14C90.0358 27.0467 89.7024 27.7533 89.0358 28.26C88.3824 28.7533 87.3624 29 85.9758 29H81.1958ZM82.5758 27.88H85.9158C86.8091 27.88 87.4824 27.74 87.9358 27.46C88.4024 27.1667 88.6358 26.7 88.6358 26.06C88.6358 25.42 88.4291 24.9533 88.0158 24.66C87.6024 24.3667 86.9491 24.22 86.0558 24.22H82.5758V27.88ZM82.5758 23.16H85.7358C86.5491 23.16 87.1691 23.0067 87.5958 22.7C88.0358 22.3933 88.2558 21.9467 88.2558 21.36C88.2558 20.7733 88.0358 20.3333 87.5958 20.04C87.1691 19.7467 86.5491 19.6 85.7358 19.6H82.5758V23.16Z" fill="white"/>
<defs>
<filter id="filter0_d_332_6860" x="0" y="0" width="118" height="53" filterUnits="userSpaceOnUse" color-interpolation-filters="sRGB">
<feFlood flood-opacity="0" result="BackgroundImageFix"/>
<feColorMatrix in="SourceAlpha" type="matrix" values="0 0 0 0 0 0 0 0 0 0 0 0 0 0 0 0 0 0 127 0" result="hardAlpha"/>
<feOffset dy="4"/>
<feGaussianBlur stdDeviation="2"/>
<feComposite in2="hardAlpha" operator="out"/>
<feColorMatrix type="matrix" values="0 0 0 0 0 0 0 0 0 0 0 0 0 0 0 0 0 0 0.25 0"/>
<feBlend mode="normal" in2="BackgroundImageFix" result="effect1_dropShadow_332_6860"/>
<feBlend mode="normal" in="SourceGraphic" in2="effect1_dropShadow_332_6860" result="shape"/>
</filter>
</defs>
</svg>
