<svg width="31" height="31" viewBox="0 0 31 31" fill="none" xmlns="http://www.w3.org/2000/svg">
<path d="M11.7017 3.00163e-05C18.1644 3.00163e-05 23.4034 5.23908 23.4034 11.7017C23.4034 18.1644 18.1644 23.4035 11.7018 23.4035C5.23902 23.4035 0 18.1644 0 11.7018C0.00768841 5.24217 5.24214 0.00768841 11.701 0H11.7018L11.7017 3.00163e-05ZM11.7017 20.6948C16.6684 20.6948 20.6947 16.6685 20.6947 11.7017C20.6947 6.73498 16.6684 2.70878 11.7017 2.70878C6.73501 2.70878 2.70872 6.73507 2.70872 11.7018C2.71488 16.666 6.73751 20.6886 11.7012 20.6948H11.7018L11.7017 20.6948ZM28.8345 30.7537L17.8546 19.7697L19.7697 17.8547L30.7536 28.8345L28.8345 30.7537Z" fill="white"/>
</svg>
