<svg width="236" height="58" viewBox="0 0 236 58" fill="none" xmlns="http://www.w3.org/2000/svg">
<g filter="url(#filter0_d_918_1710)">
<rect x="4" width="228" height="50" rx="6" fill="#47D263"/>
</g>
<path d="M11.9866 34L19.7866 16.5H23.7866L31.6116 34H27.3616L20.9616 18.55H22.5616L16.1366 34H11.9866ZM15.8866 30.25L16.9616 27.175H25.9616L27.0616 30.25H15.8866ZM41.5573 34.2C40.424 34.2 39.4323 33.95 38.5823 33.45C37.7323 32.95 37.0657 32.1917 36.5823 31.175C36.1157 30.1417 35.8823 28.8417 35.8823 27.275C35.8823 25.6917 36.1073 24.3917 36.5573 23.375C37.0073 22.3583 37.6573 21.6 38.5073 21.1C39.3573 20.6 40.374 20.35 41.5573 20.35C42.824 20.35 43.9573 20.6417 44.9573 21.225C45.974 21.7917 46.774 22.5917 47.3573 23.625C47.9573 24.6583 48.2573 25.875 48.2573 27.275C48.2573 28.6917 47.9573 29.9167 47.3573 30.95C46.774 31.9833 45.974 32.7833 44.9573 33.35C43.9573 33.9167 42.824 34.2 41.5573 34.2ZM33.6073 38.85V20.55H37.3323V23.3L37.2573 27.3L37.5073 31.275V38.85H33.6073ZM40.8823 31C41.5323 31 42.1073 30.85 42.6073 30.55C43.124 30.25 43.5323 29.825 43.8323 29.275C44.149 28.7083 44.3073 28.0417 44.3073 27.275C44.3073 26.4917 44.149 25.825 43.8323 25.275C43.5323 24.725 43.124 24.3 42.6073 24C42.1073 23.7 41.5323 23.55 40.8823 23.55C40.2323 23.55 39.649 23.7 39.1323 24C38.6157 24.3 38.2073 24.725 37.9073 25.275C37.6073 25.825 37.4573 26.4917 37.4573 27.275C37.4573 28.0417 37.6073 28.7083 37.9073 29.275C38.2073 29.825 38.6157 30.25 39.1323 30.55C39.649 30.85 40.2323 31 40.8823 31ZM48.7757 34L54.8007 26.1L54.7257 28.25L48.9507 20.55H53.3257L56.9757 25.575L55.3257 25.625L59.1007 20.55H63.2507L57.4507 28.175V26.075L63.4507 34H59.0257L55.2007 28.65L56.8257 28.875L53.0257 34H48.7757ZM65.3706 34V20.55H69.2456V28.55L75.7956 20.55H79.3706V34H75.4956V26L68.9706 34H65.3706ZM83.1196 34V20.55H89.9946C91.678 20.55 92.9946 20.8583 93.9446 21.475C94.8946 22.075 95.3696 22.925 95.3696 24.025C95.3696 25.125 94.9196 25.9917 94.0196 26.625C93.1363 27.2417 91.9613 27.55 90.4946 27.55L90.8946 26.65C92.528 26.65 93.7446 26.95 94.5446 27.55C95.3613 28.15 95.7696 29.025 95.7696 30.175C95.7696 31.3583 95.3196 32.2917 94.4196 32.975C93.5196 33.6583 92.1446 34 90.2946 34H83.1196ZM86.6946 31.35H89.9696C90.6863 31.35 91.2196 31.2333 91.5696 31C91.9363 30.75 92.1196 30.375 92.1196 29.875C92.1196 29.3583 91.953 28.9833 91.6196 28.75C91.2863 28.5 90.7613 28.375 90.0446 28.375H86.6946V31.35ZM86.6946 26.075H89.6446C90.328 26.075 90.8363 25.95 91.1696 25.7C91.5196 25.45 91.6946 25.0917 91.6946 24.625C91.6946 24.1417 91.5196 23.7833 91.1696 23.55C90.8363 23.3167 90.328 23.2 89.6446 23.2H86.6946V26.075ZM114.426 34.3C113.043 34.3 111.76 34.075 110.576 33.625C109.41 33.175 108.393 32.5417 107.526 31.725C106.676 30.9083 106.01 29.95 105.526 28.85C105.06 27.75 104.826 26.55 104.826 25.25C104.826 23.95 105.06 22.75 105.526 21.65C106.01 20.55 106.685 19.5917 107.551 18.775C108.418 17.9583 109.435 17.325 110.601 16.875C111.768 16.425 113.035 16.2 114.401 16.2C115.785 16.2 117.051 16.425 118.201 16.875C119.368 17.325 120.376 17.9583 121.226 18.775C122.093 19.5917 122.768 20.55 123.251 21.65C123.735 22.7333 123.976 23.9333 123.976 25.25C123.976 26.55 123.735 27.7583 123.251 28.875C122.768 29.975 122.093 30.9333 121.226 31.75C120.376 32.55 119.368 33.175 118.201 33.625C117.051 34.075 115.793 34.3 114.426 34.3ZM114.401 30.85C115.185 30.85 115.901 30.7167 116.551 30.45C117.218 30.1833 117.801 29.8 118.301 29.3C118.801 28.8 119.185 28.2083 119.451 27.525C119.735 26.8417 119.876 26.0833 119.876 25.25C119.876 24.4167 119.735 23.6583 119.451 22.975C119.185 22.2917 118.801 21.7 118.301 21.2C117.818 20.7 117.243 20.3167 116.576 20.05C115.91 19.7833 115.185 19.65 114.401 19.65C113.618 19.65 112.893 19.7833 112.226 20.05C111.576 20.3167 111.001 20.7 110.501 21.2C110.001 21.7 109.61 22.2917 109.326 22.975C109.06 23.6583 108.926 24.4167 108.926 25.25C108.926 26.0667 109.06 26.825 109.326 27.525C109.61 28.2083 109.993 28.8 110.476 29.3C110.976 29.8 111.56 30.1833 112.226 30.45C112.893 30.7167 113.618 30.85 114.401 30.85ZM126.796 34V20.55H130.671V25.8H136.521V20.55H140.421V34H136.521V28.975H130.671V34H126.796ZM142.455 33.975L142.655 30.775C142.755 30.7917 142.855 30.8083 142.955 30.825C143.055 30.825 143.146 30.825 143.23 30.825C143.696 30.825 144.063 30.6917 144.33 30.425C144.596 30.1583 144.796 29.8 144.93 29.35C145.063 28.8833 145.155 28.3583 145.205 27.775C145.271 27.1917 145.321 26.5833 145.355 25.95L145.555 20.55H157.055V34H153.155V22.8L154.03 23.75H148.13L148.955 22.75L148.78 26.125C148.73 27.325 148.63 28.425 148.48 29.425C148.346 30.425 148.121 31.2917 147.805 32.025C147.488 32.7417 147.063 33.3 146.53 33.7C145.996 34.0833 145.313 34.275 144.48 34.275C144.18 34.275 143.863 34.25 143.53 34.2C143.196 34.15 142.838 34.075 142.455 33.975ZM168.855 34V31.375L168.605 30.8V26.1C168.605 25.2667 168.347 24.6167 167.83 24.15C167.33 23.6833 166.555 23.45 165.505 23.45C164.789 23.45 164.08 23.5667 163.38 23.8C162.697 24.0167 162.114 24.3167 161.63 24.7L160.23 21.975C160.964 21.4583 161.847 21.0583 162.88 20.775C163.914 20.4917 164.964 20.35 166.03 20.35C168.08 20.35 169.672 20.8333 170.805 21.8C171.939 22.7667 172.505 24.275 172.505 26.325V34H168.855ZM164.755 34.2C163.705 34.2 162.805 34.025 162.055 33.675C161.305 33.3083 160.73 32.8167 160.33 32.2C159.93 31.5833 159.73 30.8917 159.73 30.125C159.73 29.325 159.922 28.625 160.305 28.025C160.705 27.425 161.33 26.9583 162.18 26.625C163.03 26.275 164.139 26.1 165.505 26.1H169.08V28.375H165.93C165.014 28.375 164.38 28.525 164.03 28.825C163.697 29.125 163.53 29.5 163.53 29.95C163.53 30.45 163.722 30.85 164.105 31.15C164.505 31.4333 165.047 31.575 165.73 31.575C166.38 31.575 166.964 31.425 167.48 31.125C167.997 30.8083 168.372 30.35 168.605 29.75L169.205 31.55C168.922 32.4167 168.405 33.075 167.655 33.525C166.905 33.975 165.939 34.2 164.755 34.2ZM175.893 34V20.55H179.768V28.55L186.318 20.55H189.893V34H186.018V26L179.493 34H175.893ZM182.643 19.1C181.176 19.1 180.076 18.7833 179.343 18.15C178.61 17.5 178.235 16.525 178.218 15.225H180.768C180.785 15.7917 180.943 16.2417 181.243 16.575C181.543 16.9083 182.001 17.075 182.618 17.075C183.218 17.075 183.676 16.9083 183.993 16.575C184.326 16.2417 184.493 15.7917 184.493 15.225H187.093C187.093 16.525 186.718 17.5 185.968 18.15C185.218 18.7833 184.11 19.1 182.643 19.1ZM193.642 34V20.55H197.517V25.8H203.367V20.55H207.267V34H203.367V28.975H197.517V34H193.642ZM219.05 34V31.375L218.8 30.8V26.1C218.8 25.2667 218.542 24.6167 218.025 24.15C217.525 23.6833 216.75 23.45 215.7 23.45C214.984 23.45 214.275 23.5667 213.575 23.8C212.892 24.0167 212.309 24.3167 211.825 24.7L210.425 21.975C211.159 21.4583 212.042 21.0583 213.075 20.775C214.109 20.4917 215.159 20.35 216.225 20.35C218.275 20.35 219.867 20.8333 221 21.8C222.134 22.7667 222.7 24.275 222.7 26.325V34H219.05ZM214.95 34.2C213.9 34.2 213 34.025 212.25 33.675C211.5 33.3083 210.925 32.8167 210.525 32.2C210.125 31.5833 209.925 30.8917 209.925 30.125C209.925 29.325 210.117 28.625 210.5 28.025C210.9 27.425 211.525 26.9583 212.375 26.625C213.225 26.275 214.334 26.1 215.7 26.1H219.275V28.375H216.125C215.209 28.375 214.575 28.525 214.225 28.825C213.892 29.125 213.725 29.5 213.725 29.95C213.725 30.45 213.917 30.85 214.3 31.15C214.7 31.4333 215.242 31.575 215.925 31.575C216.575 31.575 217.159 31.425 217.675 31.125C218.192 30.8083 218.567 30.35 218.8 29.75L219.4 31.55C219.117 32.4167 218.6 33.075 217.85 33.525C217.1 33.975 216.134 34.2 214.95 34.2Z" fill="white"/>
<defs>
<filter id="filter0_d_918_1710" x="0" y="0" width="236" height="58" filterUnits="userSpaceOnUse" color-interpolation-filters="sRGB">
<feFlood flood-opacity="0" result="BackgroundImageFix"/>
<feColorMatrix in="SourceAlpha" type="matrix" values="0 0 0 0 0 0 0 0 0 0 0 0 0 0 0 0 0 0 127 0" result="hardAlpha"/>
<feOffset dy="4"/>
<feGaussianBlur stdDeviation="2"/>
<feComposite in2="hardAlpha" operator="out"/>
<feColorMatrix type="matrix" values="0 0 0 0 0 0 0 0 0 0 0 0 0 0 0 0 0 0 0.25 0"/>
<feBlend mode="normal" in2="BackgroundImageFix" result="effect1_dropShadow_918_1710"/>
<feBlend mode="normal" in="SourceGraphic" in2="effect1_dropShadow_918_1710" result="shape"/>
</filter>
</defs>
</svg>
