<svg width="236" height="58" viewBox="0 0 236 58" fill="none" xmlns="http://www.w3.org/2000/svg">
<g filter="url(#filter0_d_918_1707)">
<rect x="4" width="228" height="50" rx="6" fill="#5155FF"/>
</g>
<path d="M12.4866 34L20.2866 16.5H24.2866L32.1116 34H27.8616L21.4616 18.55H23.0616L16.6366 34H12.4866ZM16.3866 30.25L17.4616 27.175H26.4616L27.5616 30.25H16.3866ZM42.0573 34.2C40.924 34.2 39.9323 33.95 39.0823 33.45C38.2323 32.95 37.5657 32.1917 37.0823 31.175C36.6157 30.1417 36.3823 28.8417 36.3823 27.275C36.3823 25.6917 36.6073 24.3917 37.0573 23.375C37.5073 22.3583 38.1573 21.6 39.0073 21.1C39.8573 20.6 40.874 20.35 42.0573 20.35C43.324 20.35 44.4573 20.6417 45.4573 21.225C46.474 21.7917 47.274 22.5917 47.8573 23.625C48.4573 24.6583 48.7573 25.875 48.7573 27.275C48.7573 28.6917 48.4573 29.9167 47.8573 30.95C47.274 31.9833 46.474 32.7833 45.4573 33.35C44.4573 33.9167 43.324 34.2 42.0573 34.2ZM34.1073 38.85V20.55H37.8323V23.3L37.7573 27.3L38.0073 31.275V38.85H34.1073ZM41.3823 31C42.0323 31 42.6073 30.85 43.1073 30.55C43.624 30.25 44.0323 29.825 44.3323 29.275C44.649 28.7083 44.8073 28.0417 44.8073 27.275C44.8073 26.4917 44.649 25.825 44.3323 25.275C44.0323 24.725 43.624 24.3 43.1073 24C42.6073 23.7 42.0323 23.55 41.3823 23.55C40.7323 23.55 40.149 23.7 39.6323 24C39.1157 24.3 38.7073 24.725 38.4073 25.275C38.1073 25.825 37.9573 26.4917 37.9573 27.275C37.9573 28.0417 38.1073 28.7083 38.4073 29.275C38.7073 29.825 39.1157 30.25 39.6323 30.55C40.149 30.85 40.7323 31 41.3823 31ZM49.2757 34L55.3007 26.1L55.2257 28.25L49.4507 20.55H53.8257L57.4757 25.575L55.8257 25.625L59.6007 20.55H63.7507L57.9507 28.175V26.075L63.9507 34H59.5257L55.7007 28.65L57.3257 28.875L53.5257 34H49.2757ZM65.8706 34V20.55H69.7456V28.55L76.2956 20.55H79.8706V34H75.9956V26L69.4706 34H65.8706ZM83.6196 34V20.55H90.4946C92.178 20.55 93.4946 20.8583 94.4446 21.475C95.3946 22.075 95.8696 22.925 95.8696 24.025C95.8696 25.125 95.4196 25.9917 94.5196 26.625C93.6363 27.2417 92.4613 27.55 90.9946 27.55L91.3946 26.65C93.028 26.65 94.2446 26.95 95.0446 27.55C95.8613 28.15 96.2696 29.025 96.2696 30.175C96.2696 31.3583 95.8196 32.2917 94.9196 32.975C94.0196 33.6583 92.6446 34 90.7946 34H83.6196ZM87.1946 31.35H90.4696C91.1863 31.35 91.7196 31.2333 92.0696 31C92.4363 30.75 92.6196 30.375 92.6196 29.875C92.6196 29.3583 92.453 28.9833 92.1196 28.75C91.7863 28.5 91.2613 28.375 90.5446 28.375H87.1946V31.35ZM87.1946 26.075H90.1446C90.828 26.075 91.3363 25.95 91.6696 25.7C92.0196 25.45 92.1946 25.0917 92.1946 24.625C92.1946 24.1417 92.0196 23.7833 91.6696 23.55C91.3363 23.3167 90.828 23.2 90.1446 23.2H87.1946V26.075ZM114.926 34.3C113.543 34.3 112.26 34.075 111.076 33.625C109.91 33.175 108.893 32.5417 108.026 31.725C107.176 30.9083 106.51 29.95 106.026 28.85C105.56 27.75 105.326 26.55 105.326 25.25C105.326 23.95 105.56 22.75 106.026 21.65C106.51 20.55 107.185 19.5917 108.051 18.775C108.918 17.9583 109.935 17.325 111.101 16.875C112.268 16.425 113.535 16.2 114.901 16.2C116.285 16.2 117.551 16.425 118.701 16.875C119.868 17.325 120.876 17.9583 121.726 18.775C122.593 19.5917 123.268 20.55 123.751 21.65C124.235 22.7333 124.476 23.9333 124.476 25.25C124.476 26.55 124.235 27.7583 123.751 28.875C123.268 29.975 122.593 30.9333 121.726 31.75C120.876 32.55 119.868 33.175 118.701 33.625C117.551 34.075 116.293 34.3 114.926 34.3ZM114.901 30.85C115.685 30.85 116.401 30.7167 117.051 30.45C117.718 30.1833 118.301 29.8 118.801 29.3C119.301 28.8 119.685 28.2083 119.951 27.525C120.235 26.8417 120.376 26.0833 120.376 25.25C120.376 24.4167 120.235 23.6583 119.951 22.975C119.685 22.2917 119.301 21.7 118.801 21.2C118.318 20.7 117.743 20.3167 117.076 20.05C116.41 19.7833 115.685 19.65 114.901 19.65C114.118 19.65 113.393 19.7833 112.726 20.05C112.076 20.3167 111.501 20.7 111.001 21.2C110.501 21.7 110.11 22.2917 109.826 22.975C109.56 23.6583 109.426 24.4167 109.426 25.25C109.426 26.0667 109.56 26.825 109.826 27.525C110.11 28.2083 110.493 28.8 110.976 29.3C111.476 29.8 112.06 30.1833 112.726 30.45C113.393 30.7167 114.118 30.85 114.901 30.85ZM127.296 34V20.55H131.171V25.8H137.021V20.55H140.921V34H137.021V28.975H131.171V34H127.296ZM142.955 33.975L143.155 30.775C143.255 30.7917 143.355 30.8083 143.455 30.825C143.555 30.825 143.646 30.825 143.73 30.825C144.196 30.825 144.563 30.6917 144.83 30.425C145.096 30.1583 145.296 29.8 145.43 29.35C145.563 28.8833 145.655 28.3583 145.705 27.775C145.771 27.1917 145.821 26.5833 145.855 25.95L146.055 20.55H157.555V34H153.655V22.8L154.53 23.75H148.63L149.455 22.75L149.28 26.125C149.23 27.325 149.13 28.425 148.98 29.425C148.846 30.425 148.621 31.2917 148.305 32.025C147.988 32.7417 147.563 33.3 147.03 33.7C146.496 34.0833 145.813 34.275 144.98 34.275C144.68 34.275 144.363 34.25 144.03 34.2C143.696 34.15 143.338 34.075 142.955 33.975ZM169.355 34V31.375L169.105 30.8V26.1C169.105 25.2667 168.847 24.6167 168.33 24.15C167.83 23.6833 167.055 23.45 166.005 23.45C165.289 23.45 164.58 23.5667 163.88 23.8C163.197 24.0167 162.614 24.3167 162.13 24.7L160.73 21.975C161.464 21.4583 162.347 21.0583 163.38 20.775C164.414 20.4917 165.464 20.35 166.53 20.35C168.58 20.35 170.172 20.8333 171.305 21.8C172.439 22.7667 173.005 24.275 173.005 26.325V34H169.355ZM165.255 34.2C164.205 34.2 163.305 34.025 162.555 33.675C161.805 33.3083 161.23 32.8167 160.83 32.2C160.43 31.5833 160.23 30.8917 160.23 30.125C160.23 29.325 160.422 28.625 160.805 28.025C161.205 27.425 161.83 26.9583 162.68 26.625C163.53 26.275 164.639 26.1 166.005 26.1H169.58V28.375H166.43C165.514 28.375 164.88 28.525 164.53 28.825C164.197 29.125 164.03 29.5 164.03 29.95C164.03 30.45 164.222 30.85 164.605 31.15C165.005 31.4333 165.547 31.575 166.23 31.575C166.88 31.575 167.464 31.425 167.98 31.125C168.497 30.8083 168.872 30.35 169.105 29.75L169.705 31.55C169.422 32.4167 168.905 33.075 168.155 33.525C167.405 33.975 166.439 34.2 165.255 34.2ZM176.393 34V20.55H180.268V28.55L186.818 20.55H190.393V34H186.518V26L179.993 34H176.393ZM183.143 19.1C181.676 19.1 180.576 18.7833 179.843 18.15C179.11 17.5 178.735 16.525 178.718 15.225H181.268C181.285 15.7917 181.443 16.2417 181.743 16.575C182.043 16.9083 182.501 17.075 183.118 17.075C183.718 17.075 184.176 16.9083 184.493 16.575C184.826 16.2417 184.993 15.7917 184.993 15.225H187.593C187.593 16.525 187.218 17.5 186.468 18.15C185.718 18.7833 184.61 19.1 183.143 19.1ZM194.142 34V20.55H198.017V25.8H203.867V20.55H207.767V34H203.867V28.975H198.017V34H194.142ZM219.55 34V31.375L219.3 30.8V26.1C219.3 25.2667 219.042 24.6167 218.525 24.15C218.025 23.6833 217.25 23.45 216.2 23.45C215.484 23.45 214.775 23.5667 214.075 23.8C213.392 24.0167 212.809 24.3167 212.325 24.7L210.925 21.975C211.659 21.4583 212.542 21.0583 213.575 20.775C214.609 20.4917 215.659 20.35 216.725 20.35C218.775 20.35 220.367 20.8333 221.5 21.8C222.634 22.7667 223.2 24.275 223.2 26.325V34H219.55ZM215.45 34.2C214.4 34.2 213.5 34.025 212.75 33.675C212 33.3083 211.425 32.8167 211.025 32.2C210.625 31.5833 210.425 30.8917 210.425 30.125C210.425 29.325 210.617 28.625 211 28.025C211.4 27.425 212.025 26.9583 212.875 26.625C213.725 26.275 214.834 26.1 216.2 26.1H219.775V28.375H216.625C215.709 28.375 215.075 28.525 214.725 28.825C214.392 29.125 214.225 29.5 214.225 29.95C214.225 30.45 214.417 30.85 214.8 31.15C215.2 31.4333 215.742 31.575 216.425 31.575C217.075 31.575 217.659 31.425 218.175 31.125C218.692 30.8083 219.067 30.35 219.3 29.75L219.9 31.55C219.617 32.4167 219.1 33.075 218.35 33.525C217.6 33.975 216.634 34.2 215.45 34.2Z" fill="white"/>
<defs>
<filter id="filter0_d_918_1707" x="0" y="0" width="236" height="58" filterUnits="userSpaceOnUse" color-interpolation-filters="sRGB">
<feFlood flood-opacity="0" result="BackgroundImageFix"/>
<feColorMatrix in="SourceAlpha" type="matrix" values="0 0 0 0 0 0 0 0 0 0 0 0 0 0 0 0 0 0 127 0" result="hardAlpha"/>
<feOffset dy="4"/>
<feGaussianBlur stdDeviation="2"/>
<feComposite in2="hardAlpha" operator="out"/>
<feColorMatrix type="matrix" values="0 0 0 0 0 0 0 0 0 0 0 0 0 0 0 0 0 0 0.25 0"/>
<feBlend mode="normal" in2="BackgroundImageFix" result="effect1_dropShadow_918_1707"/>
<feBlend mode="normal" in="SourceGraphic" in2="effect1_dropShadow_918_1707" result="shape"/>
</filter>
</defs>
</svg>
