<svg width="207" height="58" viewBox="0 0 207 58" fill="none" xmlns="http://www.w3.org/2000/svg">
<g filter="url(#filter0_d_925_1512)">
<rect x="4" width="199" height="50" rx="6" fill="#5155FF"/>
</g>
<path d="M73.9992 34.3C72.6159 34.3 71.3326 34.075 70.1492 33.625C68.9826 33.175 67.9659 32.5417 67.0992 31.725C66.2492 30.9083 65.5826 29.95 65.0992 28.85C64.6326 27.75 64.3992 26.55 64.3992 25.25C64.3992 23.95 64.6326 22.75 65.0992 21.65C65.5826 20.55 66.2576 19.5917 67.1242 18.775C67.9909 17.9583 69.0076 17.325 70.1742 16.875C71.3409 16.425 72.6076 16.2 73.9742 16.2C75.3576 16.2 76.6242 16.425 77.7742 16.875C78.9409 17.325 79.9492 17.9583 80.7992 18.775C81.6659 19.5917 82.3409 20.55 82.8242 21.65C83.3076 22.7333 83.5492 23.9333 83.5492 25.25C83.5492 26.55 83.3076 27.7583 82.8242 28.875C82.3409 29.975 81.6659 30.9333 80.7992 31.75C79.9492 32.55 78.9409 33.175 77.7742 33.625C76.6242 34.075 75.3659 34.3 73.9992 34.3ZM73.9742 30.85C74.7576 30.85 75.4742 30.7167 76.1242 30.45C76.7909 30.1833 77.3742 29.8 77.8742 29.3C78.3742 28.8 78.7576 28.2083 79.0242 27.525C79.3076 26.8417 79.4492 26.0833 79.4492 25.25C79.4492 24.4167 79.3076 23.6583 79.0242 22.975C78.7576 22.2917 78.3742 21.7 77.8742 21.2C77.3909 20.7 76.8159 20.3167 76.1492 20.05C75.4826 19.7833 74.7576 19.65 73.9742 19.65C73.1909 19.65 72.4659 19.7833 71.7992 20.05C71.1492 20.3167 70.5742 20.7 70.0742 21.2C69.5742 21.7 69.1826 22.2917 68.8992 22.975C68.6326 23.6583 68.4992 24.4167 68.4992 25.25C68.4992 26.0667 68.6326 26.825 68.8992 27.525C69.1826 28.2083 69.5659 28.8 70.0492 29.3C70.5492 29.8 71.1326 30.1833 71.7992 30.45C72.4659 30.7167 73.1909 30.85 73.9742 30.85ZM89.0977 34V22.85L89.9727 23.75H84.5477V20.55H97.5227V23.75H92.0977L92.9727 22.85V34H89.0977ZM108.077 28.85C107.527 29.15 106.918 29.3917 106.252 29.575C105.585 29.7583 104.852 29.85 104.052 29.85C102.285 29.85 100.927 29.45 99.9766 28.65C99.0266 27.8333 98.5516 26.5417 98.5516 24.775V20.55H102.452V24.525C102.452 25.3583 102.668 25.9583 103.102 26.325C103.535 26.675 104.143 26.85 104.927 26.85C105.493 26.85 106.035 26.7833 106.552 26.65C107.085 26.5167 107.593 26.325 108.077 26.075V28.85ZM107.802 34V20.55H111.702V34H107.802ZM122.021 34.2C120.488 34.2 119.138 33.9 117.971 33.3C116.821 32.7 115.93 31.8833 115.296 30.85C114.663 29.8 114.346 28.6083 114.346 27.275C114.346 25.925 114.655 24.7333 115.271 23.7C115.905 22.65 116.763 21.8333 117.846 21.25C118.93 20.65 120.155 20.35 121.521 20.35C122.838 20.35 124.021 20.6333 125.071 21.2C126.138 21.75 126.98 22.55 127.596 23.6C128.213 24.6333 128.521 25.875 128.521 27.325C128.521 27.475 128.513 27.65 128.496 27.85C128.48 28.0333 128.463 28.2083 128.446 28.375H117.521V26.1H126.396L124.896 26.775C124.896 26.075 124.755 25.4667 124.471 24.95C124.188 24.4333 123.796 24.0333 123.296 23.75C122.796 23.45 122.213 23.3 121.546 23.3C120.88 23.3 120.288 23.45 119.771 23.75C119.271 24.0333 118.88 24.4417 118.596 24.975C118.313 25.4917 118.171 26.1083 118.171 26.825V27.425C118.171 28.1583 118.33 28.8083 118.646 29.375C118.98 29.925 119.438 30.35 120.021 30.65C120.621 30.9333 121.321 31.075 122.121 31.075C122.838 31.075 123.463 30.9667 123.996 30.75C124.546 30.5333 125.046 30.2083 125.496 29.775L127.571 32.025C126.955 32.725 126.18 33.2667 125.246 33.65C124.313 34.0167 123.238 34.2 122.021 34.2ZM133.922 34V22.85L134.797 23.75H129.372V20.55H142.347V23.75H136.922L137.797 22.85V34H133.922Z" fill="white"/>
<defs>
<filter id="filter0_d_925_1512" x="0" y="0" width="207" height="58" filterUnits="userSpaceOnUse" color-interpolation-filters="sRGB">
<feFlood flood-opacity="0" result="BackgroundImageFix"/>
<feColorMatrix in="SourceAlpha" type="matrix" values="0 0 0 0 0 0 0 0 0 0 0 0 0 0 0 0 0 0 127 0" result="hardAlpha"/>
<feOffset dy="4"/>
<feGaussianBlur stdDeviation="2"/>
<feComposite in2="hardAlpha" operator="out"/>
<feColorMatrix type="matrix" values="0 0 0 0 0 0 0 0 0 0 0 0 0 0 0 0 0 0 0.25 0"/>
<feBlend mode="normal" in2="BackgroundImageFix" result="effect1_dropShadow_925_1512"/>
<feBlend mode="normal" in="SourceGraphic" in2="effect1_dropShadow_925_1512" result="shape"/>
</filter>
</defs>
</svg>
