<svg width="207" height="58" viewBox="0 0 207 58" fill="none" xmlns="http://www.w3.org/2000/svg">
<g filter="url(#filter0_d_909_1192)">
<rect x="4" width="199" height="50" rx="6" fill="#47D263"/>
</g>
<path d="M61.4255 34.3C60.0422 34.3 58.7588 34.075 57.5755 33.625C56.4088 33.175 55.3922 32.5417 54.5255 31.725C53.6755 30.9083 53.0088 29.95 52.5255 28.85C52.0588 27.75 51.8255 26.55 51.8255 25.25C51.8255 23.95 52.0588 22.75 52.5255 21.65C53.0088 20.55 53.6838 19.5917 54.5505 18.775C55.4172 17.9583 56.4338 17.325 57.6005 16.875C58.7672 16.425 60.0338 16.2 61.4005 16.2C62.7838 16.2 64.0505 16.425 65.2005 16.875C66.3672 17.325 67.3755 17.9583 68.2255 18.775C69.0922 19.5917 69.7672 20.55 70.2505 21.65C70.7338 22.7333 70.9755 23.9333 70.9755 25.25C70.9755 26.55 70.7338 27.7583 70.2505 28.875C69.7672 29.975 69.0922 30.9333 68.2255 31.75C67.3755 32.55 66.3672 33.175 65.2005 33.625C64.0505 34.075 62.7922 34.3 61.4255 34.3ZM61.4005 30.85C62.1838 30.85 62.9005 30.7167 63.5505 30.45C64.2172 30.1833 64.8005 29.8 65.3005 29.3C65.8005 28.8 66.1838 28.2083 66.4505 27.525C66.7338 26.8417 66.8755 26.0833 66.8755 25.25C66.8755 24.4167 66.7338 23.6583 66.4505 22.975C66.1838 22.2917 65.8005 21.7 65.3005 21.2C64.8172 20.7 64.2422 20.3167 63.5755 20.05C62.9088 19.7833 62.1838 19.65 61.4005 19.65C60.6172 19.65 59.8922 19.7833 59.2255 20.05C58.5755 20.3167 58.0005 20.7 57.5005 21.2C57.0005 21.7 56.6088 22.2917 56.3255 22.975C56.0588 23.6583 55.9255 24.4167 55.9255 25.25C55.9255 26.0667 56.0588 26.825 56.3255 27.525C56.6088 28.2083 56.9922 28.8 57.4755 29.3C57.9755 29.8 58.5588 30.1833 59.2255 30.45C59.8922 30.7167 60.6172 30.85 61.4005 30.85ZM73.7954 34V20.55H77.6704V25.8H83.5204V20.55H87.4204V34H83.5204V28.975H77.6704V34H73.7954ZM89.4538 33.975L89.6538 30.775C89.7538 30.7917 89.8538 30.8083 89.9538 30.825C90.0538 30.825 90.1455 30.825 90.2288 30.825C90.6955 30.825 91.0621 30.6917 91.3288 30.425C91.5955 30.1583 91.7955 29.8 91.9288 29.35C92.0621 28.8833 92.1538 28.3583 92.2038 27.775C92.2705 27.1917 92.3205 26.5833 92.3538 25.95L92.5538 20.55H104.054V34H100.154V22.8L101.029 23.75H95.1288L95.9538 22.75L95.7788 26.125C95.7288 27.325 95.6288 28.425 95.4788 29.425C95.3455 30.425 95.1205 31.2917 94.8038 32.025C94.4871 32.7417 94.0621 33.3 93.5288 33.7C92.9955 34.0833 92.3121 34.275 91.4788 34.275C91.1788 34.275 90.8621 34.25 90.5288 34.2C90.1955 34.15 89.8371 34.075 89.4538 33.975ZM115.854 34V31.375L115.604 30.8V26.1C115.604 25.2667 115.346 24.6167 114.829 24.15C114.329 23.6833 113.554 23.45 112.504 23.45C111.788 23.45 111.079 23.5667 110.379 23.8C109.696 24.0167 109.113 24.3167 108.629 24.7L107.229 21.975C107.963 21.4583 108.846 21.0583 109.879 20.775C110.913 20.4917 111.963 20.35 113.029 20.35C115.079 20.35 116.671 20.8333 117.804 21.8C118.938 22.7667 119.504 24.275 119.504 26.325V34H115.854ZM111.754 34.2C110.704 34.2 109.804 34.025 109.054 33.675C108.304 33.3083 107.729 32.8167 107.329 32.2C106.929 31.5833 106.729 30.8917 106.729 30.125C106.729 29.325 106.921 28.625 107.304 28.025C107.704 27.425 108.329 26.9583 109.179 26.625C110.029 26.275 111.138 26.1 112.504 26.1H116.079V28.375H112.929C112.013 28.375 111.379 28.525 111.029 28.825C110.696 29.125 110.529 29.5 110.529 29.95C110.529 30.45 110.721 30.85 111.104 31.15C111.504 31.4333 112.046 31.575 112.729 31.575C113.379 31.575 113.963 31.425 114.479 31.125C114.996 30.8083 115.371 30.35 115.604 29.75L116.204 31.55C115.921 32.4167 115.404 33.075 114.654 33.525C113.904 33.975 112.938 34.2 111.754 34.2ZM122.892 34V20.55H126.767V28.55L133.317 20.55H136.892V34H133.017V26L126.492 34H122.892ZM129.642 19.1C128.175 19.1 127.075 18.7833 126.342 18.15C125.609 17.5 125.234 16.525 125.217 15.225H127.767C127.784 15.7917 127.942 16.2417 128.242 16.575C128.542 16.9083 129 17.075 129.617 17.075C130.217 17.075 130.675 16.9083 130.992 16.575C131.325 16.2417 131.492 15.7917 131.492 15.225H134.092C134.092 16.525 133.717 17.5 132.967 18.15C132.217 18.7833 131.109 19.1 129.642 19.1ZM140.641 34V20.55H144.516V25.8H150.366V20.55H154.266V34H150.366V28.975H144.516V34H140.641Z" fill="white"/>
<defs>
<filter id="filter0_d_909_1192" x="0" y="0" width="207" height="58" filterUnits="userSpaceOnUse" color-interpolation-filters="sRGB">
<feFlood flood-opacity="0" result="BackgroundImageFix"/>
<feColorMatrix in="SourceAlpha" type="matrix" values="0 0 0 0 0 0 0 0 0 0 0 0 0 0 0 0 0 0 127 0" result="hardAlpha"/>
<feOffset dy="4"/>
<feGaussianBlur stdDeviation="2"/>
<feComposite in2="hardAlpha" operator="out"/>
<feColorMatrix type="matrix" values="0 0 0 0 0 0 0 0 0 0 0 0 0 0 0 0 0 0 0.25 0"/>
<feBlend mode="normal" in2="BackgroundImageFix" result="effect1_dropShadow_909_1192"/>
<feBlend mode="normal" in="SourceGraphic" in2="effect1_dropShadow_909_1192" result="shape"/>
</filter>
</defs>
</svg>
